<?xml version="1.0" encoding="utf-8"?>
<!-- Generator: Adobe Illustrator 19.0.0, SVG Export Plug-In . SVG Version: 6.00 Build 0)  -->
<svg version="1.1" id="home-buttons" xmlns="http://www.w3.org/2000/svg" xmlns:xlink="http://www.w3.org/1999/xlink" x="0px"
	 y="0px" viewBox="0 0 480 640" style="enable-background:new 0 0 480 640;" xml:space="preserve">
<g id="shoot-photo">
	<g id="XMLID_1126_">
		<ellipse id="XMLID_1130_" style="fill:#2B2B29;" cx="246" cy="466.9" rx="101.7" ry="105.5"/>
		<ellipse id="XMLID_1129_" style="fill:#5F5F6F;" cx="241" cy="459.1" rx="101.7" ry="105.5"/>
		<ellipse id="XMLID_1128_" style="fill:#333333;" cx="238.5" cy="456.5" rx="79.9" ry="82.9"/>
		<ellipse id="XMLID_1127_" style="fill:#EABC4F;" cx="241" cy="459.1" rx="79.9" ry="82.9"/>
	</g>
	<g id="XMLID_1120_">
		<path id="XMLID_1122_" style="fill:#1A1A1A;" d="M198.7,476.1c0-11.4,0-22.8,0-34.1c0-0.1,0.1-0.1,0.1-0.2
			c0.5-3.6,2.5-6.1,5.8-7.7c0.2-0.1,0.5-0.5,0.5-0.9c0.2-1.9,1.3-3,3.3-3.1c2,0,4.1-0.1,6.1,0c0.7,0,1.6,0.3,2.1,0.8
			c0.6,0.5,0.9,1.4,1.5,2.3c1.5,0,3.3,0,5,0c0.2,0,0.5-0.3,0.7-0.5c1.1-1.9,2.3-3.8,3.3-5.8c1.1-2.3,2.9-3.2,5.4-3.2
			c3.9,0,7.7,0,11.6,0c3.4,0,6.7,0,10.1,0c2.2,0,3.9,0.8,4.9,2.9c0.9,1.7,2,3.4,2.8,5.1c0.6,1.2,1.4,1.7,2.7,1.5c0.3-0.1,0.6,0,1,0
			c6.9,0.1,12.6,4.1,14.8,10.6c0.4,1.2,0.6,2.5,0.8,3.7c0,9.5,0,19,0,28.5c-0.1,0.3-0.1,0.6-0.2,0.9c-0.4,1.4-0.6,3-1.3,4.3
			c-2.9,6-7.8,9.1-14.4,9.1c-16.9,0.1-33.8,0-50.7,0c-7.7,0-13.6-4.6-15.4-12C199,477.7,198.9,476.9,198.7,476.1z M243.2,436.3
			c-12.4,0-22.4,10-22.4,22.4c0,12.2,9.8,22.4,22.4,22.4c12.4,0,22.4-10,22.4-22.4C265.5,446.1,255.4,436.3,243.2,436.3z
			 M216.2,439.6c0-2.6-2.1-4.8-4.8-4.8c-2.6,0-4.8,2.1-4.8,4.7c0,2.6,2.2,4.8,4.8,4.8C214.1,444.4,216.2,442.3,216.2,439.6z"/>
		<path id="XMLID_1121_" style="fill:#1A1A1A;" d="M258.4,458.7c0,8.4-6.8,15.2-15.2,15.2c-8.4,0-15.3-6.8-15.3-15.2
			c0-8.4,6.9-15.3,15.3-15.2C251.6,443.5,258.4,450.3,258.4,458.7z"/>
	</g>
</g>
<g id="dear-santa">
	<path id="XMLID_111_" style="fill:#2B2B29;" d="M355.5,180.4h-233c-37.6,0-68-30.5-68-68v0c0-37.6,30.5-68,68-68h233
		c37.6,0,68,30.5,68,68v0C423.6,149.9,393.1,180.4,355.5,180.4z"/>
	<path id="XMLID_183_" style="fill:#EABC4F;" d="M357.5,182.6h-233c-37.6,0-68-30.5-68-68v0c0-37.6,30.5-68,68-68h233
		c37.6,0,68,30.5,68,68v0C425.5,152.1,395,182.6,357.5,182.6z"/>
	<g id="XMLID_182_">
		<g id="XMLID_751_">
			<path id="XMLID_822_" d="M183.9,91.2c0,2.3-0.4,4.4-1.3,6.1c-0.9,1.7-2.1,3.1-3.8,4c-1.6,0.9-3.6,1.4-5.8,1.4h-5.2l4-18.9h4.8
				c2.3,0,4.1,0.6,5.4,1.9C183.3,87,183.9,88.8,183.9,91.2z M173.2,100.2c1.5,0,2.9-0.4,4-1.1c1.1-0.7,2-1.8,2.6-3.1
				s0.9-2.9,0.9-4.6c0-1.6-0.4-2.8-1.1-3.6c-0.8-0.8-1.9-1.2-3.3-1.2h-1.9l-2.9,13.7H173.2z"/>
			<path id="XMLID_819_" d="M191.3,103c-1.7,0-3-0.5-4-1.4s-1.4-2.3-1.4-4c0-1.7,0.3-3.3,1-4.8c0.7-1.5,1.6-2.6,2.7-3.4
				s2.4-1.2,3.8-1.2c1.4,0,2.5,0.3,3.2,0.9c0.8,0.6,1.2,1.5,1.2,2.7c0,1.6-0.7,2.8-2.2,3.7c-1.4,0.9-3.5,1.3-6.1,1.3H189l0,0.4v0.4
				c0,1,0.2,1.7,0.7,2.2c0.5,0.5,1.2,0.8,2.2,0.8c0.6,0,1.2-0.1,1.8-0.2c0.6-0.2,1.3-0.4,2.2-0.8v2.4c-0.8,0.4-1.6,0.6-2.3,0.8
				C193,102.9,192.2,103,191.3,103z M193.3,90.5c-0.8,0-1.6,0.4-2.3,1.1c-0.7,0.7-1.3,1.7-1.6,2.9h0.4c1.6,0,2.9-0.2,3.8-0.7
				c0.9-0.5,1.4-1.1,1.4-2c0-0.4-0.1-0.8-0.4-1C194.2,90.7,193.8,90.5,193.3,90.5z"/>
			<path id="XMLID_816_" d="M203.8,103c-1.2,0-2.2-0.4-2.9-1.3c-0.7-0.9-1.1-2.1-1.1-3.7c0-1.7,0.3-3.4,0.9-4.9s1.4-2.7,2.5-3.6
				c1.1-0.9,2.2-1.3,3.5-1.3c0.8,0,1.6,0.2,2.2,0.6s1.1,1,1.4,1.7h0.1l0.8-2h2.3l-3,14.3h-2.4l0.3-2.3h-0.1
				C206.9,102.2,205.4,103,203.8,103z M204.9,100.6c0.7,0,1.4-0.3,2.1-1c0.7-0.7,1.2-1.6,1.7-2.7s0.7-2.3,0.7-3.7
				c0-0.8-0.2-1.4-0.6-1.8c-0.4-0.5-0.9-0.7-1.6-0.7c-0.7,0-1.4,0.3-2.1,1s-1.2,1.6-1.6,2.7s-0.6,2.3-0.6,3.5c0,0.9,0.2,1.5,0.5,2
				C203.8,100.3,204.3,100.6,204.9,100.6z"/>
			<path id="XMLID_814_" d="M224.2,88.2c0.5,0,1,0.1,1.4,0.2l-0.7,2.8c-0.5-0.1-0.9-0.2-1.3-0.2c-1.1,0-2.1,0.5-2.9,1.5
				c-0.9,1-1.4,2.2-1.8,3.8l-1.4,6.5h-3.1l3.1-14.3h2.4l-0.3,2.6h0.1c0.7-1,1.4-1.8,2.1-2.2C222.7,88.4,223.4,88.2,224.2,88.2z"/>
			<path id="XMLID_812_" d="M243.6,97.2c0,1.8-0.6,3.2-1.9,4.3c-1.2,1-3,1.5-5.2,1.5c-1.8,0-3.3-0.3-4.5-1v-2.9
				c1.5,0.8,3,1.3,4.5,1.3c1.2,0,2.1-0.3,2.8-0.8c0.7-0.5,1-1.2,1-2.1c0-0.6-0.2-1.1-0.5-1.6c-0.4-0.5-1.1-1-2.2-1.8
				c-0.9-0.6-1.6-1.1-2-1.6c-0.4-0.5-0.8-1-1-1.6s-0.3-1.2-0.3-1.9c0-1.1,0.3-2.1,0.8-2.9c0.5-0.9,1.3-1.5,2.2-2
				c1-0.5,2.1-0.7,3.3-0.7c1.8,0,3.4,0.4,4.9,1.2l-1.1,2.5c-1.4-0.7-2.7-1-3.8-1c-0.9,0-1.7,0.3-2.3,0.8c-0.6,0.5-0.9,1.2-0.9,2
				c0,0.4,0.1,0.8,0.2,1.1c0.1,0.3,0.3,0.6,0.6,0.9c0.3,0.3,0.9,0.7,1.7,1.2c1.3,0.8,2.3,1.6,2.8,2.4
				C243.4,95.3,243.6,96.2,243.6,97.2z"/>
			<path id="XMLID_809_" d="M250.4,103c-1.2,0-2.2-0.4-2.9-1.3c-0.7-0.9-1.1-2.1-1.1-3.7c0-1.7,0.3-3.4,0.9-4.9s1.4-2.7,2.5-3.6
				c1.1-0.9,2.2-1.3,3.5-1.3c0.8,0,1.6,0.2,2.2,0.6s1.1,1,1.4,1.7h0.1l0.8-2h2.3l-3,14.3h-2.4l0.3-2.3h-0.1
				C253.6,102.2,252.1,103,250.4,103z M251.5,100.6c0.7,0,1.4-0.3,2.1-1c0.7-0.7,1.2-1.6,1.7-2.7s0.7-2.3,0.7-3.7
				c0-0.8-0.2-1.4-0.6-1.8c-0.4-0.5-0.9-0.7-1.6-0.7c-0.7,0-1.4,0.3-2.1,1s-1.2,1.6-1.6,2.7s-0.6,2.3-0.6,3.5c0,0.9,0.2,1.5,0.5,2
				C250.4,100.3,250.9,100.6,251.5,100.6z"/>
			<path id="XMLID_807_" d="M269.7,102.8l1.8-8.7c0.2-0.8,0.2-1.3,0.2-1.7c0-1.1-0.6-1.7-1.7-1.7c-0.6,0-1.2,0.2-1.8,0.7
				c-0.6,0.5-1.1,1.2-1.6,2.1c-0.5,0.9-0.8,2-1.1,3.1l-1.3,6.1h-3.1l3.1-14.3h2.4l-0.3,2.6h0.1c0.7-1,1.5-1.8,2.2-2.2
				c0.8-0.5,1.6-0.7,2.5-0.7c1.2,0,2,0.3,2.7,1s1,1.6,1,2.8c0,0.6-0.1,1.4-0.3,2.3l-1.8,8.4H269.7z"/>
			<path id="XMLID_805_" d="M282.1,100.6c0.6,0,1.2-0.1,2-0.4v2.3c-0.3,0.1-0.7,0.3-1.2,0.4c-0.5,0.1-1,0.2-1.6,0.2
				c-2.4,0-3.5-1.1-3.5-3.2c0-0.5,0.1-1.1,0.2-1.7l1.6-7.4h-2.1l0.3-1.4l2.5-1.1l1.7-3h1.9l-0.7,3.2h3.6l-0.5,2.3h-3.6l-1.6,7.4
				c-0.1,0.5-0.2,0.9-0.2,1.2c0,0.4,0.1,0.7,0.3,0.9C281.3,100.5,281.7,100.6,282.1,100.6z"/>
			<path id="XMLID_802_" d="M291.1,103c-1.2,0-2.2-0.4-2.9-1.3c-0.7-0.9-1.1-2.1-1.1-3.7c0-1.7,0.3-3.4,0.9-4.9s1.4-2.7,2.5-3.6
				c1.1-0.9,2.2-1.3,3.5-1.3c0.8,0,1.6,0.2,2.2,0.6s1.1,1,1.4,1.7h0.1l0.8-2h2.3l-3,14.3h-2.4l0.3-2.3h-0.1
				C294.2,102.2,292.7,103,291.1,103z M292.2,100.6c0.7,0,1.4-0.3,2.1-1c0.7-0.7,1.2-1.6,1.7-2.7s0.7-2.3,0.7-3.7
				c0-0.8-0.2-1.4-0.6-1.8c-0.4-0.5-0.9-0.7-1.6-0.7c-0.7,0-1.4,0.3-2.1,1s-1.2,1.6-1.6,2.7s-0.6,2.3-0.6,3.5c0,0.9,0.2,1.5,0.5,2
				C291.1,100.3,291.6,100.6,292.2,100.6z"/>
			<path id="XMLID_800_" d="M305.6,99.7l0.1,0.3c-1.1,2.2-2.2,4.3-3.4,6.2H300c0.9-2.1,1.8-4.2,2.6-6.5H305.6z"/>
			<path id="XMLID_798_" d="M122.1,132.3c0.6,0,1.2-0.1,2-0.4v2.3c-0.3,0.1-0.7,0.3-1.2,0.4c-0.5,0.1-1,0.2-1.6,0.2
				c-2.4,0-3.5-1.1-3.5-3.2c0-0.5,0.1-1.1,0.2-1.7l1.6-7.4h-2.1l0.3-1.4l2.5-1.1l1.7-3h1.9l-0.7,3.2h3.6l-0.5,2.3h-3.6l-1.6,7.4
				c-0.1,0.5-0.2,0.9-0.2,1.2c0,0.4,0.1,0.7,0.3,0.9C121.3,132.2,121.6,132.3,122.1,132.3z"/>
			<path id="XMLID_796_" d="M135,134.5l1.8-8.7c0.2-0.8,0.2-1.3,0.2-1.6c0-1.2-0.6-1.7-1.7-1.7c-1,0-1.9,0.5-2.7,1.6
				s-1.5,2.6-1.8,4.4l-1.3,6h-3.1l4.3-20.1h3l-0.7,3.4c-0.2,1.1-0.5,2.3-0.9,3.8l-0.2,1h0.1c0.7-0.9,1.4-1.6,2.2-2
				c0.7-0.4,1.5-0.6,2.3-0.6c1.2,0,2.1,0.3,2.7,1s0.9,1.6,0.9,2.9c0,0.7-0.1,1.4-0.3,2.2l-1.8,8.4H135z"/>
			<path id="XMLID_793_" d="M145.2,134.5h-3.1l3.1-14.3h3L145.2,134.5z M145.8,116.7c0-0.6,0.2-1.1,0.5-1.4c0.3-0.4,0.8-0.5,1.4-0.5
				c0.5,0,0.8,0.1,1.1,0.3c0.3,0.2,0.4,0.6,0.4,1c0,0.6-0.2,1.1-0.5,1.4c-0.3,0.4-0.8,0.5-1.4,0.5c-0.5,0-0.8-0.1-1.1-0.3
				S145.8,117.2,145.8,116.7z"/>
			<path id="XMLID_791_" d="M158.9,130.1c0,1.5-0.5,2.6-1.5,3.4c-1,0.8-2.4,1.2-4.2,1.2c-1.6,0-3-0.3-4.2-0.9v-2.6
				c1.3,0.8,2.7,1.2,4,1.2c0.8,0,1.5-0.2,2-0.5c0.5-0.3,0.8-0.8,0.8-1.4c0-0.4-0.1-0.8-0.4-1.1c-0.3-0.3-0.9-0.7-1.8-1.3
				c-1.1-0.6-1.8-1.2-2.3-1.8c-0.4-0.6-0.7-1.3-0.7-2.1c0-1.3,0.5-2.4,1.4-3.1s2.2-1.1,3.7-1.1c1.7,0,3.2,0.4,4.5,1.1l-1,2.3
				c-1.2-0.7-2.4-1-3.4-1c-0.6,0-1.1,0.1-1.5,0.4c-0.4,0.3-0.6,0.7-0.6,1.2c0,0.4,0.1,0.7,0.4,1s0.9,0.7,1.7,1.2
				c0.9,0.5,1.5,0.9,1.9,1.3c0.4,0.4,0.7,0.8,0.9,1.2C158.8,129.1,158.9,129.6,158.9,130.1z"/>
			<path id="XMLID_789_" d="M168.9,120.2h3l0.8,6.9c0.1,0.5,0.1,1.3,0.2,2.3c0.1,1,0.1,1.8,0.1,2.3h0.1c0.7-1.9,1.3-3.2,1.7-4
				l3.8-7.4h3.3l-8.9,16.5c-0.8,1.4-1.6,2.5-2.5,3.1c-0.9,0.7-2,1-3.2,1c-0.7,0-1.3-0.1-1.8-0.2v-2.4c0.6,0.1,1.2,0.2,1.6,0.2
				c0.6,0,1.2-0.2,1.7-0.6c0.5-0.4,1.1-1,1.6-2l0.7-1.2L168.9,120.2z"/>
			<path id="XMLID_786_" d="M187.2,134.8c-1.7,0-3-0.5-4-1.4s-1.4-2.3-1.4-4c0-1.7,0.3-3.3,1-4.8c0.7-1.5,1.6-2.6,2.7-3.4
				s2.4-1.2,3.8-1.2c1.4,0,2.5,0.3,3.2,0.9c0.8,0.6,1.2,1.5,1.2,2.7c0,1.6-0.7,2.8-2.2,3.7c-1.4,0.9-3.5,1.3-6.1,1.3h-0.6l0,0.4v0.4
				c0,1,0.2,1.7,0.7,2.2c0.5,0.5,1.2,0.8,2.2,0.8c0.6,0,1.2-0.1,1.8-0.2c0.6-0.2,1.3-0.4,2.2-0.8v2.4c-0.8,0.4-1.6,0.6-2.3,0.8
				C188.8,134.7,188.1,134.8,187.2,134.8z M189.2,122.3c-0.8,0-1.6,0.4-2.3,1.1c-0.7,0.7-1.3,1.7-1.6,2.9h0.4c1.6,0,2.9-0.2,3.8-0.7
				c0.9-0.5,1.4-1.1,1.4-2c0-0.4-0.1-0.8-0.4-1C190.1,122.4,189.7,122.3,189.2,122.3z"/>
			<path id="XMLID_783_" d="M199.6,134.8c-1.2,0-2.2-0.4-2.9-1.3c-0.7-0.9-1.1-2.1-1.1-3.7c0-1.7,0.3-3.4,0.9-4.9s1.4-2.7,2.5-3.6
				c1.1-0.9,2.2-1.3,3.5-1.3c0.8,0,1.6,0.2,2.2,0.6s1.1,1,1.4,1.7h0.1l0.8-2h2.3l-3,14.3H204l0.3-2.3h-0.1
				C202.8,133.9,201.3,134.8,199.6,134.8z M200.8,132.3c0.7,0,1.4-0.3,2.1-1c0.7-0.7,1.2-1.6,1.7-2.7s0.7-2.3,0.7-3.7
				c0-0.8-0.2-1.4-0.6-1.8c-0.4-0.5-0.9-0.7-1.6-0.7c-0.7,0-1.4,0.3-2.1,1s-1.2,1.6-1.6,2.7s-0.6,2.3-0.6,3.5c0,0.9,0.2,1.5,0.5,2
				C199.6,132.1,200.1,132.3,200.8,132.3z"/>
			<path id="XMLID_781_" d="M220.1,120c0.5,0,1,0.1,1.4,0.2l-0.7,2.8c-0.5-0.1-0.9-0.2-1.3-0.2c-1.1,0-2.1,0.5-2.9,1.5
				c-0.9,1-1.4,2.2-1.8,3.8l-1.4,6.5h-3.1l3.1-14.3h2.4l-0.3,2.6h0.1c0.7-1,1.4-1.8,2.1-2.2C218.6,120.2,219.3,120,220.1,120z"/>
			<path id="XMLID_779_" d="M228.4,134.5l4-18.9h3l-4,18.9H228.4z"/>
			<path id="XMLID_777_" d="M251.3,134.5l1.8-8.7c0.2-0.8,0.2-1.3,0.2-1.6c0-1.2-0.6-1.7-1.7-1.7c-1,0-1.9,0.5-2.7,1.6
				s-1.5,2.6-1.8,4.4l-1.3,6h-3.1l4.3-20.1h3l-0.7,3.4c-0.2,1.1-0.5,2.3-0.9,3.8l-0.2,1h0.1c0.7-0.9,1.4-1.6,2.2-2
				c0.7-0.4,1.5-0.6,2.3-0.6c1.2,0,2.1,0.3,2.7,1s0.9,1.6,0.9,2.9c0,0.7-0.1,1.4-0.3,2.2l-1.8,8.4H251.3z"/>
			<path id="XMLID_774_" d="M263,134.8c-1.2,0-2.2-0.4-2.9-1.3c-0.7-0.9-1.1-2.1-1.1-3.7c0-1.7,0.3-3.4,0.9-4.9s1.4-2.7,2.5-3.6
				c1.1-0.9,2.2-1.3,3.5-1.3c0.8,0,1.6,0.2,2.2,0.6s1.1,1,1.4,1.7h0.1l0.8-2h2.3l-3,14.3h-2.4l0.3-2.3h-0.1
				C266.1,133.9,264.6,134.8,263,134.8z M264.1,132.3c0.7,0,1.4-0.3,2.1-1c0.7-0.7,1.2-1.6,1.7-2.7s0.7-2.3,0.7-3.7
				c0-0.8-0.2-1.4-0.6-1.8c-0.4-0.5-0.9-0.7-1.6-0.7c-0.7,0-1.4,0.3-2.1,1s-1.2,1.6-1.6,2.7s-0.6,2.3-0.6,3.5c0,0.9,0.2,1.5,0.5,2
				C263,132.1,263.5,132.3,264.1,132.3z"/>
			<path id="XMLID_772_" d="M276.2,134.5l-1.7-14.3h3l0.7,7.7c0.1,1.4,0.2,2.6,0.2,3.8h0.1c0.2-0.6,0.5-1.3,0.9-2.1
				c0.4-0.8,0.6-1.4,0.8-1.7l4-7.7h3.2l-7.7,14.3H276.2z"/>
			<path id="XMLID_769_" d="M292.7,134.8c-1.7,0-3-0.5-4-1.4s-1.4-2.3-1.4-4c0-1.7,0.3-3.3,1-4.8c0.7-1.5,1.6-2.6,2.7-3.4
				s2.4-1.2,3.8-1.2c1.4,0,2.5,0.3,3.2,0.9c0.8,0.6,1.2,1.5,1.2,2.7c0,1.6-0.7,2.8-2.2,3.7c-1.4,0.9-3.5,1.3-6.1,1.3h-0.6l0,0.4v0.4
				c0,1,0.2,1.7,0.7,2.2c0.5,0.5,1.2,0.8,2.2,0.8c0.6,0,1.2-0.1,1.8-0.2c0.6-0.2,1.3-0.4,2.2-0.8v2.4c-0.8,0.4-1.6,0.6-2.3,0.8
				C294.3,134.7,293.5,134.8,292.7,134.8z M294.6,122.3c-0.8,0-1.6,0.4-2.3,1.1c-0.7,0.7-1.3,1.7-1.6,2.9h0.4c1.6,0,2.9-0.2,3.8-0.7
				c0.9-0.5,1.4-1.1,1.4-2c0-0.4-0.1-0.8-0.4-1C295.6,122.4,295.2,122.3,294.6,122.3z"/>
			<path id="XMLID_766_" d="M314.3,134.8c-0.8,0-1.6-0.2-2.2-0.6s-1.1-1-1.4-1.7h-0.1l-0.8,2h-2.3l4.3-20.1h3l-0.9,4.3
				c-0.1,0.5-0.3,1.2-0.5,2c-0.2,0.8-0.4,1.4-0.5,1.8h0.1c0.8-1,1.5-1.6,2.1-2c0.6-0.4,1.3-0.6,2.1-0.6c1.2,0,2.2,0.4,2.9,1.3
				s1,2.1,1,3.7c0,1.7-0.3,3.4-0.9,4.9c-0.6,1.5-1.4,2.7-2.5,3.6C316.7,134.4,315.6,134.8,314.3,134.8z M316,122.5
				c-0.7,0-1.4,0.3-2.1,1c-0.7,0.7-1.3,1.6-1.7,2.7s-0.6,2.3-0.6,3.5c0,0.8,0.2,1.5,0.6,1.9c0.4,0.5,1,0.7,1.7,0.7s1.4-0.3,2.1-1
				s1.1-1.6,1.5-2.7c0.4-1.1,0.6-2.3,0.6-3.5C318,123.3,317.4,122.5,316,122.5z"/>
			<path id="XMLID_763_" d="M329,134.8c-1.7,0-3-0.5-4-1.4s-1.4-2.3-1.4-4c0-1.7,0.3-3.3,1-4.8c0.7-1.5,1.6-2.6,2.7-3.4
				s2.4-1.2,3.8-1.2c1.4,0,2.5,0.3,3.2,0.9c0.8,0.6,1.2,1.5,1.2,2.7c0,1.6-0.7,2.8-2.2,3.7c-1.4,0.9-3.5,1.3-6.1,1.3h-0.6l0,0.4v0.4
				c0,1,0.2,1.7,0.7,2.2c0.5,0.5,1.2,0.8,2.2,0.8c0.6,0,1.2-0.1,1.8-0.2c0.6-0.2,1.3-0.4,2.2-0.8v2.4c-0.8,0.4-1.6,0.6-2.3,0.8
				C330.6,134.7,329.8,134.8,329,134.8z M330.9,122.3c-0.8,0-1.6,0.4-2.3,1.1c-0.7,0.7-1.3,1.7-1.6,2.9h0.4c1.6,0,2.9-0.2,3.8-0.7
				c0.9-0.5,1.4-1.1,1.4-2c0-0.4-0.1-0.8-0.4-1C331.9,122.4,331.5,122.3,330.9,122.3z"/>
			<path id="XMLID_760_" d="M342.9,134.8c-1.7,0-3-0.5-4-1.4s-1.4-2.3-1.4-4c0-1.7,0.3-3.3,1-4.8c0.7-1.5,1.6-2.6,2.7-3.4
				s2.4-1.2,3.8-1.2c1.4,0,2.5,0.3,3.2,0.9c0.8,0.6,1.2,1.5,1.2,2.7c0,1.6-0.7,2.8-2.2,3.7c-1.4,0.9-3.5,1.3-6.1,1.3h-0.6l0,0.4v0.4
				c0,1,0.2,1.7,0.7,2.2c0.5,0.5,1.2,0.8,2.2,0.8c0.6,0,1.2-0.1,1.8-0.2c0.6-0.2,1.3-0.4,2.2-0.8v2.4c-0.8,0.4-1.6,0.6-2.3,0.8
				C344.5,134.7,343.7,134.8,342.9,134.8z M344.8,122.3c-0.8,0-1.6,0.4-2.3,1.1c-0.7,0.7-1.3,1.7-1.6,2.9h0.4c1.6,0,2.9-0.2,3.8-0.7
				c0.9-0.5,1.4-1.1,1.4-2c0-0.4-0.1-0.8-0.4-1C345.8,122.4,345.4,122.3,344.8,122.3z"/>
			<path id="XMLID_758_" d="M359.2,134.5l1.8-8.7c0.2-0.8,0.2-1.3,0.2-1.7c0-1.1-0.6-1.7-1.7-1.7c-0.6,0-1.2,0.2-1.8,0.7
				c-0.6,0.5-1.1,1.2-1.6,2.1c-0.5,0.9-0.8,2-1.1,3.1l-1.3,6.1h-3.1l3.1-14.3h2.4l-0.3,2.6h0.1c0.7-1,1.5-1.8,2.2-2.2
				c0.8-0.5,1.6-0.7,2.5-0.7c1.2,0,2,0.3,2.7,1s1,1.6,1,2.8c0,0.6-0.1,1.4-0.3,2.3l-1.8,8.4H359.2z"/>
			<path id="XMLID_756_" d="M230.7,157.3c0-0.7,0.2-1.3,0.6-1.7c0.4-0.4,1-0.6,1.7-0.6c0.5,0,0.9,0.1,1.2,0.4
				c0.3,0.3,0.4,0.7,0.4,1.2c0,0.7-0.2,1.2-0.6,1.7c-0.4,0.4-0.9,0.7-1.6,0.7c-0.6,0-1-0.2-1.3-0.5S230.7,157.8,230.7,157.3z"/>
			<path id="XMLID_754_" d="M237.8,157.3c0-0.7,0.2-1.3,0.6-1.7c0.4-0.4,1-0.6,1.7-0.6c0.5,0,0.9,0.1,1.2,0.4
				c0.3,0.3,0.4,0.7,0.4,1.2c0,0.7-0.2,1.2-0.6,1.7c-0.4,0.4-0.9,0.7-1.6,0.7c-0.6,0-1-0.2-1.3-0.5S237.8,157.8,237.8,157.3z"/>
			<path id="XMLID_752_" d="M245,157.3c0-0.7,0.2-1.3,0.6-1.7c0.4-0.4,1-0.6,1.7-0.6c0.5,0,0.9,0.1,1.2,0.4c0.3,0.3,0.4,0.7,0.4,1.2
				c0,0.7-0.2,1.2-0.6,1.7c-0.4,0.4-0.9,0.7-1.6,0.7c-0.6,0-1-0.2-1.3-0.5S245,157.8,245,157.3z"/>
		</g>
	</g>
</g>
<g id="select-naughty">
	<g id="naughty-col">
		<circle id="XMLID_386_" style="fill:#2B2B29;" cx="153.8" cy="279.1" r="71.7"/>
		<circle id="XMLID_385_" style="fill:#5F5F6F;" cx="150.2" cy="273.8" r="71.7"/>
		<circle id="XMLID_384_" style="fill:#333333;" cx="148.4" cy="272" r="56.3"/>
		
			<circle id="naughty-col-change" style="fill:#ED4F7E;stroke:#333341;stroke-width:2;stroke-miterlimit:10;" cx="150.2" cy="273.8" r="56.3"/>
	</g>
	<g id="XMLID_501_">
		<path id="XMLID_502_" d="M120.4,278.3h-0.8l-5-12.6h-0.1c-0.2,1-0.3,1.9-0.5,2.7c-0.2,0.8-0.9,4.1-2.1,9.9h-0.9l3-14.3h0.8
			l5.1,12.7h0.1c0.1-1.1,0.4-2.5,0.7-4.1l1.8-8.6h0.9L120.4,278.3z"/>
		<path id="XMLID_504_" d="M129.8,267.5c1.5,0,2.4,0.7,2.7,2.1h0.1l0.6-2h0.8l-2.2,10.6h-0.8l0.4-2.7h-0.1c-0.5,0.9-1.2,1.6-1.8,2.1
			c-0.7,0.5-1.4,0.7-2.3,0.7c-1.8,0-2.7-1.2-2.7-3.7c0-1.3,0.2-2.5,0.7-3.7c0.5-1.2,1.1-2.1,2-2.7
			C127.9,267.8,128.8,267.5,129.8,267.5z M127.3,277.6c0.6,0,1.2-0.2,1.7-0.6s1.1-0.9,1.6-1.6c0.5-0.7,0.8-1.4,1.1-2.3
			c0.2-0.8,0.4-1.5,0.4-2.1c0-0.5-0.1-1-0.3-1.4s-0.4-0.7-0.8-1c-0.3-0.2-0.7-0.4-1.2-0.4c-0.8,0-1.5,0.3-2.2,0.8
			c-0.7,0.5-1.2,1.3-1.6,2.4c-0.4,1.1-0.6,2.1-0.6,3.2c0,1,0.2,1.7,0.5,2.2C126.2,277.4,126.7,277.6,127.3,277.6z"/>
		<path id="XMLID_507_" d="M138.2,267.7l-1.5,6.8c-0.1,0.7-0.2,1.2-0.2,1.5c0,0.5,0.2,0.9,0.5,1.1c0.3,0.3,0.8,0.4,1.4,0.4
			c0.7,0,1.4-0.2,2-0.6c0.6-0.4,1.2-1,1.6-1.8s0.8-1.7,1-2.7l1-4.7h1l-2.3,10.6h-0.8l0.3-2h-0.1c-1.1,1.4-2.4,2.2-3.9,2.2
			c-0.9,0-1.5-0.2-1.9-0.6c-0.4-0.4-0.7-1-0.7-1.8c0-0.4,0.1-0.9,0.2-1.7l1.5-6.8H138.2z"/>
		<path id="XMLID_509_" d="M156.4,267.7l-0.2,0.8l-2.4,0.1c0.2,0.2,0.3,0.5,0.4,0.8c0.1,0.4,0.2,0.7,0.2,1.1c0,0.7-0.2,1.4-0.5,2
			s-0.8,1.1-1.4,1.4c-0.6,0.3-1.3,0.5-2.1,0.5c-0.4,0-0.7,0-0.8-0.1c-0.5,0.2-0.9,0.5-1.2,0.7c-0.3,0.3-0.4,0.5-0.4,0.8
			c0,0.3,0.1,0.5,0.3,0.6c0.2,0.2,0.6,0.3,1.1,0.3l1.2,0.1c2.3,0.2,3.4,1.1,3.4,2.6c0,0.7-0.2,1.4-0.6,1.9s-1,1-1.8,1.3
			c-0.8,0.3-1.7,0.5-2.8,0.5c-1.2,0-2.2-0.2-2.9-0.7c-0.7-0.5-1-1.1-1-2c0-1.5,1-2.6,3-3.3c-0.5-0.3-0.8-0.7-0.8-1.2
			c0-0.8,0.6-1.5,1.9-2c-0.5-0.2-0.8-0.6-1.1-1s-0.4-1-0.4-1.5c0-0.7,0.2-1.4,0.5-2s0.8-1.1,1.4-1.4s1.3-0.5,2-0.5
			c0.5,0,0.9,0.1,1.4,0.2H156.4z M145.8,280.3c0,0.7,0.3,1.1,0.8,1.5c0.5,0.3,1.3,0.5,2.2,0.5c1.3,0,2.4-0.2,3.1-0.7s1.1-1.2,1.1-2
			c0-0.6-0.2-1-0.6-1.3s-1.1-0.5-2.1-0.6l-1.6-0.1c-1,0.3-1.8,0.7-2.2,1.1C146,279.1,145.8,279.7,145.8,280.3z M148.4,271.3
			c0,0.7,0.2,1.3,0.6,1.7c0.4,0.4,0.9,0.6,1.6,0.6c0.6,0,1.1-0.1,1.5-0.4c0.4-0.2,0.8-0.6,1-1.1c0.2-0.5,0.4-1.1,0.4-1.7
			c0-0.7-0.2-1.2-0.5-1.6s-0.9-0.6-1.5-0.6c-0.6,0-1.1,0.1-1.6,0.4c-0.4,0.3-0.8,0.7-1,1.1C148.5,270.3,148.4,270.8,148.4,271.3z"/>
		<path id="XMLID_513_" d="M163.3,278.3l1.5-6.8c0.1-0.6,0.2-1.1,0.2-1.5c0-0.5-0.1-0.9-0.4-1.2c-0.3-0.3-0.7-0.4-1.3-0.4
			c-0.7,0-1.4,0.2-2.1,0.7c-0.6,0.4-1.2,1-1.6,1.8c-0.4,0.8-0.8,1.7-1,2.8l-1,4.7h-1l3.2-15.2h0.9l-0.8,4c-0.3,1.3-0.5,2.2-0.6,2.7
			h0.1c0.5-0.7,1.1-1.3,1.8-1.7c0.7-0.4,1.5-0.6,2.2-0.6c0.8,0,1.4,0.2,1.9,0.6c0.4,0.4,0.7,1,0.7,1.8c0,0.5-0.1,1.1-0.2,1.8
			l-1.4,6.6H163.3z"/>
		<path id="XMLID_515_" d="M173.8,267.7l-0.2,0.8h-2.8l-1.3,6.2c-0.1,0.6-0.2,1.2-0.2,1.6c0,0.9,0.4,1.4,1.2,1.4
			c0.4,0,0.9-0.1,1.5-0.3v0.8c-0.7,0.2-1.2,0.3-1.7,0.3c-0.6,0-1.1-0.2-1.5-0.5c-0.4-0.4-0.5-0.9-0.5-1.6c0-0.5,0.1-1.1,0.3-2
			l1.3-5.9h-1.8l0.1-0.7l1.8-0.2l0.9-2.5h0.5l-0.5,2.5H173.8z"/>
		<path id="XMLID_517_" d="M174.2,267.7h1l0.8,5.4c0.3,2.3,0.5,3.8,0.5,4.4h0.1c0.3-0.7,0.9-1.9,1.8-3.6l3.4-6.2h1l-7,12.6
			c-0.5,0.8-0.9,1.4-1.2,1.7s-0.7,0.6-1.1,0.8c-0.4,0.2-0.9,0.3-1.4,0.3c-0.4,0-0.9-0.1-1.3-0.2V282c0.5,0.2,0.9,0.3,1.3,0.3
			c0.5,0,1-0.2,1.4-0.5c0.4-0.3,0.9-0.9,1.3-1.6c0.4-0.8,0.7-1.4,1-1.8L174.2,267.7z"/>
		<path id="XMLID_519_" d="M182.8,277.7c0-0.4,0.1-0.7,0.2-0.9s0.4-0.3,0.7-0.3c0.4,0,0.6,0.2,0.6,0.7c0,0.3-0.1,0.6-0.2,0.9
			s-0.4,0.3-0.7,0.3C183,278.5,182.8,278.2,182.8,277.7z M184.4,274.6h-0.6l2-10.6h1.2L184.4,274.6z"/>
	</g>
</g>
<g id="select-nice">
	<g id="nice-col">
		<ellipse id="XMLID_380_" style="fill:#2B2B29;" cx="322" cy="277.5" rx="71.5" ry="71.7"/>
		<ellipse id="XMLID_376_" style="fill:#5F5F6F;" cx="318.5" cy="272.2" rx="71.5" ry="71.7"/>
		<ellipse id="XMLID_375_" style="fill:#333333;" cx="316.8" cy="270.4" rx="56.2" ry="56.3"/>
		<ellipse id="nice-col-change" style="fill:#14CEFF;" cx="318.5" cy="272.2" rx="56.2" ry="56.3"/>
	</g>
	<g id="XMLID_200_">
		<path id="XMLID_487_" d="M310.3,277.5h-0.8l-5-12.6h-0.1c-0.2,1-0.3,1.9-0.5,2.7c-0.2,0.8-0.9,4.1-2.1,9.9h-0.9l3-14.3h0.8
			l5.1,12.7h0.1c0.1-1.1,0.4-2.5,0.7-4.1l1.8-8.6h0.9L310.3,277.5z"/>
		<path id="XMLID_489_" d="M315,277.5h-1l2.3-10.6h0.9L315,277.5z M316.7,264.1c0-0.4,0.1-0.6,0.2-0.9c0.1-0.2,0.3-0.3,0.6-0.3
			c0.4,0,0.6,0.2,0.6,0.7c0,0.4-0.1,0.7-0.2,0.9c-0.1,0.2-0.3,0.3-0.6,0.3c-0.2,0-0.3-0.1-0.4-0.2
			C316.7,264.5,316.7,264.4,316.7,264.1z"/>
		<path id="XMLID_492_" d="M322.6,277.7c-1.1,0-2-0.4-2.7-1.1c-0.7-0.7-1-1.7-1-3c0-1.3,0.2-2.4,0.7-3.5c0.5-1.1,1.1-1.9,1.9-2.5
			c0.8-0.6,1.8-0.9,2.8-0.9c0.9,0,1.7,0.1,2.4,0.4l-0.3,0.9c-0.7-0.3-1.4-0.5-2.1-0.5c-0.8,0-1.6,0.3-2.3,0.8
			c-0.7,0.5-1.2,1.2-1.6,2.2s-0.6,2-0.6,3.1c0,1,0.2,1.8,0.7,2.4c0.5,0.6,1.2,0.8,2,0.8c0.5,0,0.9,0,1.3-0.1
			c0.4-0.1,0.8-0.2,1.3-0.5v0.9C324.5,277.5,323.6,277.7,322.6,277.7z"/>
		<path id="XMLID_494_" d="M331.2,277.7c-1.1,0-2-0.4-2.6-1.1c-0.6-0.7-0.9-1.7-0.9-3c0-1.2,0.2-2.3,0.7-3.4s1.1-1.9,1.9-2.6
			c0.8-0.6,1.7-1,2.7-1c0.7,0,1.3,0.2,1.8,0.6c0.4,0.4,0.7,0.9,0.7,1.6c0,1.2-0.5,2.1-1.6,2.7s-2.6,0.9-4.8,0.9h-0.3
			c0,0.3-0.1,0.6-0.1,1c0,1.1,0.2,1.9,0.7,2.5c0.5,0.6,1.2,0.8,2.1,0.8c0.9,0,1.8-0.2,2.7-0.7v0.9
			C333.2,277.5,332.2,277.7,331.2,277.7z M332.7,267.5c-0.9,0-1.6,0.4-2.4,1.1c-0.7,0.8-1.3,1.8-1.6,3h0.5c3.4,0,5.1-0.9,5.1-2.6
			c0-0.4-0.1-0.8-0.4-1.1C333.6,267.7,333.2,267.5,332.7,267.5z"/>
		<path id="XMLID_498_" d="M336.4,276.9c0-0.4,0.1-0.7,0.2-0.9c0.2-0.2,0.4-0.3,0.7-0.3c0.4,0,0.6,0.2,0.6,0.7
			c0,0.3-0.1,0.6-0.2,0.9s-0.4,0.3-0.7,0.3C336.7,277.7,336.4,277.4,336.4,276.9z M338.1,273.8h-0.6l2-10.6h1.2L338.1,273.8z"/>
	</g>
</g>
</svg>
