<?xml version="1.0" encoding="utf-8"?>
<!-- Generator: Adobe Illustrator 19.0.0, SVG Export Plug-In . SVG Version: 6.00 Build 0)  -->
<svg version="1.1" id="Layer_1" xmlns="http://www.w3.org/2000/svg" xmlns:xlink="http://www.w3.org/1999/xlink" x="0px" y="0px"
	 viewBox="17 6 534 490" style="enable-background:new 17 6 534 490;" xml:space="preserve">
<g id="XMLID_96_">
	<path id="XMLID_262_" style="fill:#DBAF82;stroke:#333341;stroke-width:2;stroke-miterlimit:10;" d="M58,49v395h452V49H58z
		 M273.7,283c-17.3,0-31.4-20.2-31.4-45c0-24.9,14-45,31.4-45s31.4,20.2,31.4,45C305.1,262.9,291,283,273.7,283z"/>
	<g id="XMLID_211_">
		
			<rect id="XMLID_227_" x="362.9" y="149.9" style="fill:#83280B;stroke:#333341;stroke-width:2;stroke-miterlimit:10;" width="3.1" height="23.5"/>
		<g id="XMLID_212_">
			<polygon id="XMLID_226_" style="fill:#ACCF79;stroke:#333341;stroke-width:2;stroke-miterlimit:10;" points="377.1,153.3 
				351.6,153.3 364.4,107.6 			"/>
			
				<line id="XMLID_223_" style="fill:none;stroke:#333341;stroke-width:2;stroke-miterlimit:10;" x1="365" y1="108" x2="365" y2="153"/>
			<g id="XMLID_218_">
				
					<line id="XMLID_222_" style="fill:none;stroke:#333341;stroke-width:2;stroke-miterlimit:10;" x1="364.3" y1="124" x2="367.1" y2="117.4"/>
				
					<line id="XMLID_221_" style="fill:none;stroke:#333341;stroke-width:2;stroke-miterlimit:10;" x1="364.3" y1="133.5" x2="369.3" y2="125.4"/>
				
					<line id="XMLID_220_" style="fill:none;stroke:#333341;stroke-width:2;stroke-miterlimit:10;" x1="364.4" y1="144.1" x2="372.4" y2="136.4"/>
				
					<line id="XMLID_219_" style="fill:none;stroke:#333341;stroke-width:2;stroke-miterlimit:10;" x1="364.3" y1="152.9" x2="375.3" y2="146.9"/>
			</g>
			<g id="XMLID_213_">
				
					<line id="XMLID_217_" style="fill:none;stroke:#333341;stroke-width:2;stroke-miterlimit:10;" x1="364.3" y1="124" x2="361.6" y2="117.4"/>
				
					<line id="XMLID_216_" style="fill:none;stroke:#333341;stroke-width:2;stroke-miterlimit:10;" x1="364.3" y1="133.5" x2="359.3" y2="125.4"/>
				
					<line id="XMLID_215_" style="fill:none;stroke:#333341;stroke-width:2;stroke-miterlimit:10;" x1="364.2" y1="144.1" x2="356.3" y2="136.4"/>
				
					<line id="XMLID_214_" style="fill:none;stroke:#333341;stroke-width:2;stroke-miterlimit:10;" x1="364.3" y1="152.9" x2="353.5" y2="146.9"/>
			</g>
		</g>
	</g>
	<g id="XMLID_70_">
		
			<rect id="XMLID_230_" x="327.9" y="156.9" style="fill:#83280B;stroke:#333341;stroke-width:2;stroke-miterlimit:10;" width="3.1" height="23.5"/>
		<g id="XMLID_71_">
			<polygon id="XMLID_229_" style="fill:#ACCF79;stroke:#333341;stroke-width:2;stroke-miterlimit:10;" points="342.1,160.3 
				316.6,160.3 329.4,114.6 			"/>
			
				<line id="XMLID_228_" style="fill:none;stroke:#333341;stroke-width:2;stroke-miterlimit:10;" x1="330" y1="115" x2="330" y2="160"/>
			<g id="XMLID_77_">
				
					<line id="XMLID_81_" style="fill:none;stroke:#333341;stroke-width:2;stroke-miterlimit:10;" x1="329.3" y1="131" x2="332.1" y2="124.4"/>
				
					<line id="XMLID_80_" style="fill:none;stroke:#333341;stroke-width:2;stroke-miterlimit:10;" x1="329.3" y1="140.5" x2="334.3" y2="132.4"/>
				
					<line id="XMLID_79_" style="fill:none;stroke:#333341;stroke-width:2;stroke-miterlimit:10;" x1="329.4" y1="151.1" x2="337.4" y2="143.4"/>
				
					<line id="XMLID_78_" style="fill:none;stroke:#333341;stroke-width:2;stroke-miterlimit:10;" x1="329.3" y1="159.9" x2="340.3" y2="153.9"/>
			</g>
			<g id="XMLID_72_">
				
					<line id="XMLID_76_" style="fill:none;stroke:#333341;stroke-width:2;stroke-miterlimit:10;" x1="329.3" y1="131" x2="326.6" y2="124.4"/>
				
					<line id="XMLID_75_" style="fill:none;stroke:#333341;stroke-width:2;stroke-miterlimit:10;" x1="329.3" y1="140.5" x2="324.3" y2="132.4"/>
				
					<line id="XMLID_74_" style="fill:none;stroke:#333341;stroke-width:2;stroke-miterlimit:10;" x1="329.2" y1="151.1" x2="321.3" y2="143.4"/>
				
					<line id="XMLID_73_" style="fill:none;stroke:#333341;stroke-width:2;stroke-miterlimit:10;" x1="329.3" y1="159.9" x2="318.5" y2="153.9"/>
			</g>
		</g>
	</g>
	<g id="XMLID_6_">
		
			<rect id="XMLID_210_" x="343.3" y="145.9" style="fill:#83280B;stroke:#333341;stroke-width:2;stroke-miterlimit:10;" width="3.7" height="28.1"/>
		<g id="XMLID_10_">
			<polygon id="XMLID_69_" style="fill:#ACCF79;stroke:#333341;stroke-width:2;stroke-miterlimit:10;" points="360.2,150 329.8,150 
				345,95.6 			"/>
			
				<line id="XMLID_68_" style="fill:none;stroke:#333341;stroke-width:2;stroke-miterlimit:10;" x1="345" y1="97" x2="345" y2="150"/>
			<g id="XMLID_40_">
				
					<line id="XMLID_46_" style="fill:none;stroke:#333341;stroke-width:2;stroke-miterlimit:10;" x1="344.9" y1="115" x2="348.2" y2="107.2"/>
				
					<line id="XMLID_45_" style="fill:none;stroke:#333341;stroke-width:2;stroke-miterlimit:10;" x1="344.9" y1="126.4" x2="350.9" y2="116.8"/>
				
					<line id="XMLID_44_" style="fill:none;stroke:#333341;stroke-width:2;stroke-miterlimit:10;" x1="345" y1="139.1" x2="354.6" y2="129.9"/>
				
					<line id="XMLID_41_" style="fill:none;stroke:#333341;stroke-width:2;stroke-miterlimit:10;" x1="344.9" y1="149.5" x2="358.1" y2="142.3"/>
			</g>
			<g id="XMLID_35_">
				
					<line id="XMLID_39_" style="fill:none;stroke:#333341;stroke-width:2;stroke-miterlimit:10;" x1="345" y1="115" x2="341.7" y2="107.2"/>
				
					<line id="XMLID_38_" style="fill:none;stroke:#333341;stroke-width:2;stroke-miterlimit:10;" x1="345" y1="126.4" x2="339" y2="116.8"/>
				
					<line id="XMLID_37_" style="fill:none;stroke:#333341;stroke-width:2;stroke-miterlimit:10;" x1="344.8" y1="139.1" x2="335.4" y2="129.9"/>
				
					<line id="XMLID_36_" style="fill:none;stroke:#333341;stroke-width:2;stroke-miterlimit:10;" x1="345" y1="149.5" x2="332" y2="142.3"/>
			</g>
		</g>
	</g>
	<path id="XMLID_249_" style="fill:#FFF1C2;stroke:#414033;stroke-width:2;stroke-miterlimit:10;" d="M517.3,253.8
		c-4.3-2.1-29-10.6-51.1-22.8s-48.1-36.8-57.2-55.4s-54.2-19.1-74.3-5.2c-6.3,4.4-21.8,17-40.8,33.1c6.8,8.3,11.2,20.6,11.2,34.5
		c0,24.9-14,45-31.4,45c-15,0-27.5-15.1-30.6-35.4c-28.2,25-54.3,49.1-64.3,60.1c-23.4,26-128.3,19.9-130.9,19.9l-0.4-3.3L42,449.7
		l195.1,3l275.9-1.9l8.7-62.4C521.6,388.4,521.6,255.9,517.3,253.8z"/>
	
		<rect id="XMLID_554_" x="127" y="239.9" style="fill:#83280B;stroke:#333341;stroke-width:2;stroke-miterlimit:10;" width="9.2" height="69.1"/>
	<g id="XMLID_584_">
		
			<rect id="XMLID_600_" x="424" y="250.9" style="fill:#83280B;stroke:#333341;stroke-width:2;stroke-miterlimit:10;" width="5.6" height="42.1"/>
		<g id="XMLID_585_">
			<polygon id="XMLID_599_" style="fill:#ACCF79;stroke:#333341;stroke-width:2;stroke-miterlimit:10;" points="449.4,257 
				403.7,257 426.5,175.3 			"/>
			
				<line id="XMLID_598_" style="fill:none;stroke:#333341;stroke-width:2;stroke-miterlimit:10;" x1="427" y1="177" x2="427" y2="257"/>
			<g id="XMLID_593_">
				
					<line id="XMLID_597_" style="fill:none;stroke:#333341;stroke-width:2;stroke-miterlimit:10;" x1="426.4" y1="204.5" x2="431.4" y2="192.7"/>
				
					<line id="XMLID_596_" style="fill:none;stroke:#333341;stroke-width:2;stroke-miterlimit:10;" x1="426.4" y1="221.5" x2="435.4" y2="207.1"/>
				
					<line id="XMLID_595_" style="fill:none;stroke:#333341;stroke-width:2;stroke-miterlimit:10;" x1="426.5" y1="240.6" x2="440.9" y2="226.8"/>
				
					<line id="XMLID_594_" style="fill:none;stroke:#333341;stroke-width:2;stroke-miterlimit:10;" x1="426.4" y1="256.3" x2="446.2" y2="245.5"/>
			</g>
			<g id="XMLID_586_">
				
					<line id="XMLID_592_" style="fill:none;stroke:#333341;stroke-width:2;stroke-miterlimit:10;" x1="426.5" y1="204.5" x2="421.5" y2="192.7"/>
				
					<line id="XMLID_590_" style="fill:none;stroke:#333341;stroke-width:2;stroke-miterlimit:10;" x1="426.5" y1="221.5" x2="417.6" y2="207.1"/>
				
					<line id="XMLID_589_" style="fill:none;stroke:#333341;stroke-width:2;stroke-miterlimit:10;" x1="426.3" y1="240.6" x2="412.2" y2="226.8"/>
				
					<line id="XMLID_587_" style="fill:none;stroke:#333341;stroke-width:2;stroke-miterlimit:10;" x1="426.5" y1="256.3" x2="407" y2="245.5"/>
			</g>
		</g>
	</g>
	<g id="XMLID_568_">
		
			<rect id="XMLID_582_" x="388.9" y="243.8" style="fill:#83280B;stroke:#333341;stroke-width:2;stroke-miterlimit:10;" width="6.7" height="50.2"/>
		<g id="XMLID_569_">
			<polygon id="XMLID_581_" style="fill:#ACCF79;stroke:#333341;stroke-width:2;stroke-miterlimit:10;" points="419.1,251.1 
				364.7,251.1 391.9,153.7 			"/>
			
				<line id="XMLID_580_" style="fill:none;stroke:#333341;stroke-width:2;stroke-miterlimit:10;" x1="392" y1="156" x2="392" y2="251"/>
			<g id="XMLID_575_">
				
					<line id="XMLID_579_" style="fill:none;stroke:#333341;stroke-width:2;stroke-miterlimit:10;" x1="391.7" y1="188.5" x2="397.7" y2="174.4"/>
				
					<line id="XMLID_578_" style="fill:none;stroke:#333341;stroke-width:2;stroke-miterlimit:10;" x1="391.7" y1="208.8" x2="402.5" y2="191.6"/>
				
					<line id="XMLID_577_" style="fill:none;stroke:#333341;stroke-width:2;stroke-miterlimit:10;" x1="391.9" y1="231.6" x2="409.1" y2="215.1"/>
				
					<line id="XMLID_576_" style="fill:none;stroke:#333341;stroke-width:2;stroke-miterlimit:10;" x1="391.7" y1="250.2" x2="415.3" y2="237.4"/>
			</g>
			<g id="XMLID_570_">
				
					<line id="XMLID_574_" style="fill:none;stroke:#333341;stroke-width:2;stroke-miterlimit:10;" x1="391.9" y1="188.5" x2="386" y2="174.4"/>
				
					<line id="XMLID_573_" style="fill:none;stroke:#333341;stroke-width:2;stroke-miterlimit:10;" x1="391.9" y1="208.8" x2="381.2" y2="191.6"/>
				
					<line id="XMLID_572_" style="fill:none;stroke:#333341;stroke-width:2;stroke-miterlimit:10;" x1="391.7" y1="231.6" x2="374.8" y2="215.1"/>
				
					<line id="XMLID_571_" style="fill:none;stroke:#333341;stroke-width:2;stroke-miterlimit:10;" x1="391.9" y1="250.2" x2="368.7" y2="237.4"/>
			</g>
		</g>
	</g>
	<g id="XMLID_555_">
		<polygon id="XMLID_567_" style="fill:#ACCF79;stroke:#333341;stroke-width:2;stroke-miterlimit:10;" points="168.6,249.9 
			93.7,249.9 131.2,115.8 		"/>
		
			<line id="XMLID_566_" style="fill:none;stroke:#333341;stroke-width:2;stroke-miterlimit:10;" x1="131" y1="119" x2="131" y2="250"/>
		<g id="XMLID_561_">
			
				<line id="XMLID_565_" style="fill:none;stroke:#333341;stroke-width:2;stroke-miterlimit:10;" x1="130.9" y1="163.7" x2="139.2" y2="144.3"/>
			
				<line id="XMLID_564_" style="fill:none;stroke:#333341;stroke-width:2;stroke-miterlimit:10;" x1="130.9" y1="191.7" x2="145.8" y2="168"/>
			
				<line id="XMLID_563_" style="fill:none;stroke:#333341;stroke-width:2;stroke-miterlimit:10;" x1="131.2" y1="223" x2="154.8" y2="200.4"/>
			
				<line id="XMLID_562_" style="fill:none;stroke:#333341;stroke-width:2;stroke-miterlimit:10;" x1="130.9" y1="248.7" x2="163.4" y2="231"/>
		</g>
		<g id="XMLID_556_">
			
				<line id="XMLID_560_" style="fill:none;stroke:#333341;stroke-width:2;stroke-miterlimit:10;" x1="131.1" y1="163.7" x2="123" y2="144.3"/>
			
				<line id="XMLID_559_" style="fill:none;stroke:#333341;stroke-width:2;stroke-miterlimit:10;" x1="131.1" y1="191.7" x2="116.5" y2="168"/>
			
				<line id="XMLID_558_" style="fill:none;stroke:#333341;stroke-width:2;stroke-miterlimit:10;" x1="130.8" y1="223" x2="107.6" y2="200.4"/>
			
				<line id="XMLID_557_" style="fill:none;stroke:#333341;stroke-width:2;stroke-miterlimit:10;" x1="131.1" y1="248.7" x2="99.2" y2="231"/>
		</g>
	</g>
	<g id="XMLID_239_">
		<g>
			<defs>
				<ellipse id="SVGID_1_" cx="275.5" cy="231" rx="35.5" ry="52"/>
			</defs>
			<clipPath id="SVGID_2_">
				<use xlink:href="#SVGID_1_"  style="overflow:visible;"/>
			</clipPath>
			<g style="clip-path:url(#SVGID_2_);">
				
					<image style="overflow:visible;enable-background:new    ;" width="710" height="720" id="XMLID_241_" xlink:href="../../../../Documents/Photo on 18-09-2015 at 17.14.jpg"  transform="matrix(0.2085 0 0 0.2085 198.5362 -307.9818)">
				</image>
			</g>
		</g>
	</g>
	<path id="XMLID_142_" style="fill:#EDD4AC;stroke:#414033;stroke-width:2;stroke-miterlimit:10;" d="M44.9,301.9
		c0,0,52.9-10.6,84.9-8c32.1,2.6,128.8,28.8,166.6,24.4c37.9-4.4,116.8-42.7,152.4-53.5c35.5-10.8,72.8-8.9,72.8-8.9l-6.2,206.8
		L286.3,450L42,449.7L44.9,301.9z"/>
	<path id="XMLID_141_" style="fill:#EDDFC8;stroke:#414033;stroke-width:2;stroke-miterlimit:10;" d="M176,443.4
		c4-2.5,18.9-19.3,36.8-16.7s37.1,0,49.6,0s41.9,9.6,60,3.1S364,410,375.2,410c11.3,0.1,42.1,16.2,46.5,23.1s-4,17.7-4,17.7
		L176,452.7V443.4z"/>
	<g id="santa_2_">
		<path id="XMLID_140_" style="fill:#66AB44;stroke:#333341;stroke-width:2;stroke-miterlimit:10;" d="M243.5,378.5
			c0,0,4.7,14.5,4.8,21.6c0.2,7.1-3.1,12.9,0,14s10.1,0,10.2-4.8c0.2-4.8-0.8-7.3-1.3-12.8s2.8-14.2,2.3-18
			C259,374.7,240.1,372.1,243.5,378.5z"/>
		<path id="XMLID_139_" style="fill:#66AB44;stroke:#333341;stroke-width:2;stroke-miterlimit:10;" d="M304.3,379.7
			c0,0-4.7,14.5-4.8,21.6c-0.2,7.1,3.1,12.9,0,14c-3.1,1.2-10.1,0-10.2-4.8c-0.2-4.8,0.8-7.3,1.3-12.8s-2.8-14.2-2.3-18
			S307.6,373.3,304.3,379.7z"/>
		<g id="XMLID_127_">
			<path id="XMLID_138_" style="fill:#2ECB7E;stroke:#333341;stroke-width:2;stroke-miterlimit:10;" d="M229.4,256
				c0,0-28.7,27.2-25.5,42.7s12.6,19.6,12.6,19.6s-0.3,23.2-5.3,27.8c-5,4.6,24.4,22.5,58.5,20.8c34-1.7,73.7-9,74.1-13.6
				c0.5-4.6-10-21.4-10-28.9s8.2-3.4,10-12.5s-5.5-41.7-12.3-49.2c-10.1-11-26.4,8.7-56.1,7.5C264.3,269.7,235.4,254.5,229.4,256z"
				/>
			<path id="XMLID_137_" style="fill:#FFFFFF;stroke:#333341;stroke-width:2;stroke-miterlimit:10;" d="M239.7,248.4
				c-8.4,3.7-24.6,8.2-16.9,18.7c7.7,10.5,65.4,19.7,83.2,10.2c17.8-9.6,36.7-16.9,12.4-25.8c-14.4-5.2-21.2,19-39,19
				C257.1,270.5,242.7,247.1,239.7,248.4z"/>
			<path id="XMLID_136_" style="fill:#83280B;stroke:#333341;stroke-width:2;stroke-miterlimit:10;" d="M215.2,327
				c2.7-3.2,1.4-2.3,7.7,0c6.4,2.3,29.6,12.3,55.6,11.4s47.3-2.3,53.1-7c4.7-3.8,4-8.8,6.7-6.5s-1.1,9.9,1.7,13.5
				c2.7,3.6,6.4,4.5,2.3,6.8s-38.3,15-65.6,15s-64.2-11.4-66.1-15s2.3-5,3.2-8.7C214.8,332.9,215.2,327,215.2,327z"/>
			<path id="XMLID_132_" style="fill:#FAAF3B;stroke:#333341;stroke-width:2;stroke-miterlimit:10;" d="M293,340.2
				c0-2.3-1.9-4.2-4.2-4.2h-28.6c-2.3,0-4.2,1.9-4.2,4.2v17.6c0,2.3,1.9,4.2,4.2,4.2h28.6c2.3,0,4.2-1.9,4.2-4.2V340.2z M288,354.2
				c0,1.5-1.2,2.8-2.8,2.8h-20.4c-1.5,0-2.8-1.2-2.8-2.8v-10.4c0-1.5,1.2-2.8,2.8-2.8h20.4c1.5,0,2.8,1.2,2.8,2.8V354.2z"/>
			<path id="XMLID_131_" style="fill:#FFFFFF;stroke:#333341;stroke-width:2;stroke-miterlimit:10;" d="M210.6,347.5
				c0,0-11.4-3.9-11.5,5.8s1.5,13.6,8.4,15.3c6.9,1.7,46.9,14.4,53.3,11.9c6.4-2.5,12.7-1.7,13-8.6s3.3-7.9-2.8-6.4
				c-6.1,1.5-5.8,2.5-17.2-0.3S216.8,350.9,210.6,347.5z"/>
			<path id="XMLID_130_" style="fill:#FFFFFF;stroke:#333341;stroke-width:2;stroke-miterlimit:10;" d="M339.3,352.5
				c0,0,10.9-8.9,11.1,0.8c0.2,9.7-1.5,13.6-8.4,15.3s-46.9,14.4-53.3,11.9s-12.7-1.7-13-8.6s-3.3-7.9,2.8-6.4
				c6.1,1.5,4.1,2.1,15.5-0.7S333.2,355.8,339.3,352.5z"/>
			<path id="XMLID_129_" style="fill:none;stroke:#333341;stroke-width:2;stroke-miterlimit:10;" d="M216.5,318.3
				c0,0-3.1-6.3,0-21.1c3.1-14.8,2.2-11.3,2.2-11.3"/>
			<path id="XMLID_128_" style="fill:none;stroke:#333341;stroke-width:2;stroke-miterlimit:10;" d="M333.7,324.5
				c-1.2-0.6,2.7-17.4,0-26.4s-3.8-12.5-3.8-12.5"/>
		</g>
		<path id="XMLID_126_" style="fill:#993344;stroke:#333341;stroke-width:2;stroke-miterlimit:10;" d="M246.7,215.8
			c-1.4,1.9-14.6,24.6-14.1,36c0.5,11.4,5.5,22.2,7.1,30.7s3.9,16.7,2.5,19.4c-1.4,2.7,8.2-6.8,7.7-14.1s1.4,28.2-3.2,32.3
			c-4.6,4.1,16.4-5.5,16.4-15s0-14.1,0-14.1s2.3,19.2-5.5,32.4c-7.7,13.2,1.2,41.2,5.9,43.6c4.6,2.4-1-8.1,4.3-25.9
			s12.6-11.8,18.5-28.2c5.9-16.4-6.8,11.4-5,20.5s2.3-2.3,9.6-10.9c7.3-8.7,15.9-7.7,16.4-18.2s3.2,4.6,7.3,5
			c4.1,0.5-3.2-6.8,0-20.5s-7.4-56.9-9.1-68.3c-1.7-11.4-8.7-1.8-9.1-9.1c-0.5-7.3,10,33.8-2.7,46.5c-10,10-37.8,7.7-43.3-6
			C244.8,238.1,256.5,202.4,246.7,215.8z"/>
		<path id="XMLID_156_" style="fill:#993344;stroke:#333341;stroke-width:2;stroke-miterlimit:10;" d="M305.9,247.7
			c0.1,4.8-7.2,4.5-8.8,3.8c-8.7-3.6-20.2-5-21.9-4.6c-0.2,0-0.4,0.1-0.6,0.1s-0.4-0.1-0.6-0.1c-1.8-0.4-13.3,1-21.9,4.6
			c-1.6,0.7-8.9,1-8.8-3.8c0.2-8.2-6.2,9.3,1.9,8.3c9-1.2,20.9-2,28.9-2.4c8,0.7,20.7,1.2,30.2,2.4
			C312.1,257,305.7,239.5,305.9,247.7z"/>
		<g id="XMLID_118_">
			<g id="XMLID_122_">
				<path id="XMLID_124_" style="fill:#52280B;stroke:#333341;stroke-width:2;stroke-miterlimit:10;" d="M260.9,420.7
					c-0.7,1.8-4.2,5.3-4.2,5.3l-2.3,0.6l-1.5-4c0,0,0.2,2.6-1.1,5.5s-6.3,8.4-9.5,9.3c-3.1,0.9-9,1.1-11.6,0.7
					c-3.4-0.5-5.7-1.1-6.9-1.7c-7.9-4-9.4-13.9-9.4-13.9l19.1,2.3l19.3-7.2l7.4-4.1C260.1,413.4,262.3,416.7,260.9,420.7z"/>
				<path id="XMLID_123_" style="fill:#F1E749;stroke:#333341;stroke-width:2;stroke-miterlimit:10;" d="M242.6,402.1
					c0.5-2.8,0-4,3.3-4.5s7.3,2.1,6.8,4.5c-0.5,2.3-3.6,9.4-2.8,10.4s1.5,1.6,4,0c2.5-1.6,4.8-3.3,4.8-5.1c0-1.5,1.5,3.4,2.1,6
					c0.1,0.5,0.2,0.9,0.2,1.2c0.2,1.7-4,7-6.1,8c-2.1,1-7.9,10.2-14.4,11c-6.4,0.8-12.2,0-15.2-1.1c-6.5-2.3-15.7-13.6-8.3-11.8
					c4,1,20.7,2.5,22.5-2.7s4.6-9.1,4.1-11.5C243.1,403.9,242.6,402.1,242.6,402.1z"/>
			</g>
			<path id="XMLID_119_" style="fill:#FAAF3B;stroke:#333341;stroke-width:2;stroke-miterlimit:10;" d="M252,409.4
				c-1-2.2-8.4-3.9-8.4-3.9c-3.3-0.8-4,7.2-3.9,9s3.7,1.5,6.4,3.5c2.7,1.9,4.3,0.1,5.8-2.3C253.5,413.2,253,411.7,252,409.4z
				 M248.4,414.2c-0.2,0.4-0.7,0.6-1.1,0.4l-3.7-1.4c-0.4-0.1-0.6-0.5-0.6-0.9c-0.1-0.9,0-2.5,1.1-3.2c0.7-0.5,5.5,0.7,5.6,1.7
				C249.8,411.4,249,413.2,248.4,414.2z"/>
		</g>
		<g id="XMLID_112_">
			<g id="XMLID_116_">
				<path id="XMLID_296_" style="fill:#52280B;stroke:#333341;stroke-width:2;stroke-miterlimit:10;" d="M287.2,420.7
					c0.6,1.8,4.1,5.3,4.1,5.3l2.3,0.6l1.5-4c0,0-0.2,2.6,1,5.5s6.2,8.4,9.3,9.3c3.1,0.9,8.8,1.1,11.4,0.7c3.3-0.5,5.6-1.1,6.8-1.7
					c7.7-4,9.2-13.9,9.2-13.9l-18.7,2.3l-18.9-7.2l-7.2-4.1C288,413.4,285.8,416.7,287.2,420.7z"/>
				<path id="XMLID_117_" style="fill:#F1E749;stroke:#333341;stroke-width:2;stroke-miterlimit:10;" d="M305.1,402.1
					c-0.5-2.8,0-4-3.2-4.5s-7.1,2.1-6.6,4.5c0.5,2.3,3.6,9.4,2.7,10.4c-0.8,1-1.5,1.6-3.9,0s-4.7-3.3-4.7-5.1c0-1.5-1.5,3.4-2.1,6
					c-0.1,0.5-0.2,0.9-0.2,1.2c-0.2,1.7,3.9,7,6,8s7.7,10.2,14.1,11c6.3,0.8,11.9,0,14.9-1.1c6.4-2.3,15.4-13.6,8.2-11.8
					c-3.9,1-20.3,2.5-22.1-2.7s-4.5-9.1-4-11.5C304.7,403.9,305.1,402.1,305.1,402.1z"/>
			</g>
			<path id="XMLID_113_" style="fill:#FAAF3B;stroke:#333341;stroke-width:2;stroke-miterlimit:10;" d="M296,409.4
				c1-2.2,8.2-3.9,8.2-3.9c3.2-0.8,4,7.2,3.8,9c-0.1,1.8-3.7,1.5-6.3,3.5c-2.6,1.9-4.3,0.1-5.7-2.3
				C294.5,413.2,294.9,411.7,296,409.4z M299.4,414.2c0.2,0.4,0.7,0.6,1.1,0.4l3.6-1.4c0.4-0.1,0.6-0.5,0.6-0.9
				c0.1-0.9,0-2.5-1.1-3.2c-0.7-0.5-5.4,0.7-5.5,1.7C298.1,411.4,298.9,413.2,299.4,414.2z"/>
		</g>
		<g id="XMLID_102_">
			
				<circle id="XMLID_110_" style="fill:#FFFFFF;stroke:#333341;stroke-width:2;stroke-miterlimit:10;" cx="235.3" cy="143.7" r="15.5"/>
			<path id="XMLID_109_" style="fill:#2ECB7E;stroke:#333341;stroke-width:2;stroke-miterlimit:10;" d="M258.9,152
				c5.2-7.1-2.1,0.9,0.6-11.4c2.7-12.3-22.1,7.5-22.1,7.5s-3.8-2.6-1.7-5.3c3.4-4.2,5.2-19.4,38.7-20.6c7-0.2,21.8,12.1,23.6,18.9
				c1.8,6.8,4.1,27.3,3.6,32.3s3.5,19.3,7.5,22.2s-7.5,6.1-7.5,6.1l-50.1,4.1c0,0-16.1,5.2-14.4-5.4c1.7-10.6,2.6-15.1,7.2-23.3
				C248.9,168.9,256.3,155.6,258.9,152z"/>
			<path style="fill:#83280B;stroke:#333341;stroke-width:2;stroke-miterlimit:10;" d="M295.2,188.3c0,0,14.4-2,19.2-20.6
				s1.8,35.3-11.9,36.4S295.2,188.3,295.2,188.3z"/>
			<path style="fill:#83280B;stroke:#333341;stroke-width:2;stroke-miterlimit:10;" d="M249.9,188.7c0,0-14.4-2-19.2-20.6
				c-4.7-18.6-1.8,35.3,11.9,36.4S249.9,188.7,249.9,188.7z"/>
			<path id="XMLID_104_" style="fill:#FFFFFF;stroke:#333341;stroke-width:2;stroke-miterlimit:10;" d="M233.9,223.5
				c0,0,13.6,2.4,20-4s10.7-8.5,13.8-8.5c3.1,0,20.4,0,20.4,0s8.1,8.6,11.3,9.5c3.2,0.9,9.1,7.2,12.3,6.3c3.2-0.9,8.2-12.8,8.2-12.8
				s-3.6-14.6-6.8-15.5c-3.2-0.9-5.5-5.9-10.9-8c-5.5-2.1-12.3-4.1-17.8-4.9c-5.5-0.8-21.4-1.5-24.1,0s-12.3,1.9-16.4,7.8
				c-1.5,2.2-4.1,4.6-6.7,6.9c-4.3,3.9-8.6,7.9-8.3,11.3C229.3,217.2,230.8,221.2,233.9,223.5z"/>
			<path id="XMLID_103_" style="fill:#FFFFFF;stroke:#333341;stroke-width:2;stroke-miterlimit:10;" d="M238.2,148.1
				c-0.9,1.2-0.8,2.7-4.9,2.3"/>
		</g>
	</g>
</g>
<g id="XMLID_843_">
	<path id="XMLID_848_" style="fill:#372C00;" d="M16.9,29L17,496h534V29l-18.9-4L16.9,29z M500,443H70V66h430V443z"/>
	<path id="XMLID_844_" style="fill:#EABC4F;" d="M17,6v486h534V6H17z M497,439H67V62h430V439z"/>
</g>
<path id="XMLID_496_" style="fill:#EDEDE7;stroke:#333341;stroke-width:2;stroke-miterlimit:10;" d="M174.6,117.1
	c1.2-11,10-20,21-21.4c7.4-0.9,14.2,1.5,19.3,5.9c-4-11.9-15.7-20.2-29.2-18.9c-13.3,1.3-24,12.1-25.1,25.5
	c-1.1,14.3,8.5,26.5,21.6,29.5C176.8,132.7,173.7,125.3,174.6,117.1z"/>
<path style="fill:#3F1F37;stroke:#333341;stroke-width:2;stroke-miterlimit:10;" d="M444.9,117.9c2.9,1,5.5,1.9,8,2.8
	c-3,8.4-8.3,10.5-17.5,6.6c0.6-2,1.2-3.9,1.8-6.2c-2.5,0.7-4.9,1-7.1,1.9c-2.4,1-4.7,1.4-7.3,0.8c-2.3-0.6-4.8-0.5-7.2-0.9
	c-1.9-0.3-3.7-0.8-5.7-1.3c0.1-0.3,0.2-0.7,0.3-1c-0.9,0-1.7,0-2.6,0c0-0.1-0.1-0.2-0.1-0.3c0.6-0.4,1.1-0.7,1.7-1.1
	c-0.6-0.3-1.2-0.6-2.1-1c0.8-0.3,1.3-0.5,2-0.7c-0.4-0.3-0.6-0.6-1.1-1c1.4-0.3,2.6-0.6,3.8-0.8c0.1-0.1,0.2-0.2,0.3-0.4
	c-0.4-0.1-0.9-0.3-1.3-0.4c0.1-0.1,0.2-0.2,0.3-0.2c2.1-0.3,4.3-0.5,6.6-0.8c-0.2-0.5-0.3-0.8-0.5-1.2c0.2-0.1,0.3-0.1,0.5-0.1
	c4,0.3,8,0.2,11.9-0.9c2.3-0.7,2.7-1.5,1.5-3.6c-0.2-0.3-0.4-0.6-0.7-0.9c1.7-0.6,3.2-0.5,4.5,0.4c1.9,1.2,3.7,0.8,5.5-0.3
	c3.7-2.2,7.4-4.4,10.2-7.7c0.6-0.8,1.6-1.3,2.5-2c0.2,0.3,0.4,0.6,0.7,1.1c2.6-1.6,5.2-3.2,8.2-5c-0.2,0.7-0.2,1.1-0.4,1.7
	c1.8-0.8,3.6-1.5,5.7-2.3c-0.2,0.7-0.3,1.1-0.4,1.7c1.2-0.4,2.4-0.8,3.5-1.2c0.1,0.1,0.2,0.3,0.3,0.4c-0.7,0.7-1.5,1.4-2.3,2.2
	c1-0.2,2-0.5,2.9-0.7c0.1,0.1,0.2,0.3,0.2,0.4c-0.7,0.6-1.5,1.2-2.1,1.7c0.1,0.5,0.3,1,0.1,1.2c-1.8,2-3.6,4-5.6,5.9
	c-1.4,1.4-3,2.6-4.4,3.9c-0.6,0.6-1,1.5-1.6,2c-3.3,3-7.4,4.6-11.4,6.2C446.1,117.1,445.7,117.4,444.9,117.9z"/>
</svg>
