<?xml version="1.0" encoding="utf-8"?>
<!-- Generator: Adobe Illustrator 19.0.0, SVG Export Plug-In . SVG Version: 6.00 Build 0)  -->
<svg version="1.1" id="Layer_1" xmlns="http://www.w3.org/2000/svg" xmlns:xlink="http://www.w3.org/1999/xlink" x="0px" y="0px"
	 viewBox="17 6 534 490" style="enable-background:new 17 6 534 490;" xml:space="preserve">
<g id="XMLID_893_">
	<path id="XMLID_949_" style="fill:#5C5B82;stroke:#333341;stroke-width:2;stroke-miterlimit:10;" d="M58,47v395h452V47H58z
		 M273.4,281c-17.3,0-31.4-20.2-31.4-45c0-24.9,14-45,31.4-45s31.4,20.2,31.4,45C304.8,260.9,290.7,281,273.4,281z"/>
	<g id="XMLID_211_">
		
			<rect id="XMLID_227_" x="366.9" y="145.9" style="fill:#83280B;stroke:#333341;stroke-width:2;stroke-miterlimit:10;" width="3.1" height="23.5"/>
		<g id="XMLID_212_">
			<polygon id="XMLID_226_" style="fill:#ACCFED;stroke:#333341;stroke-width:2;stroke-miterlimit:10;" points="381.1,149.3 
				355.6,149.3 368.4,103.6 			"/>
			
				<line id="XMLID_223_" style="fill:none;stroke:#333341;stroke-width:2;stroke-miterlimit:10;" x1="369" y1="104" x2="369" y2="149"/>
			<g id="XMLID_218_">
				
					<line id="XMLID_222_" style="fill:none;stroke:#333341;stroke-width:2;stroke-miterlimit:10;" x1="368.3" y1="120" x2="371.1" y2="113.4"/>
				
					<line id="XMLID_221_" style="fill:none;stroke:#333341;stroke-width:2;stroke-miterlimit:10;" x1="368.3" y1="129.5" x2="373.3" y2="121.4"/>
				
					<line id="XMLID_220_" style="fill:none;stroke:#333341;stroke-width:2;stroke-miterlimit:10;" x1="368.4" y1="140.1" x2="376.4" y2="132.4"/>
				
					<line id="XMLID_219_" style="fill:none;stroke:#333341;stroke-width:2;stroke-miterlimit:10;" x1="368.3" y1="148.9" x2="379.3" y2="142.9"/>
			</g>
			<g id="XMLID_213_">
				
					<line id="XMLID_217_" style="fill:none;stroke:#333341;stroke-width:2;stroke-miterlimit:10;" x1="368.3" y1="120" x2="365.6" y2="113.4"/>
				
					<line id="XMLID_216_" style="fill:none;stroke:#333341;stroke-width:2;stroke-miterlimit:10;" x1="368.3" y1="129.5" x2="363.3" y2="121.4"/>
				
					<line id="XMLID_215_" style="fill:none;stroke:#333341;stroke-width:2;stroke-miterlimit:10;" x1="368.2" y1="140.1" x2="360.3" y2="132.4"/>
				
					<line id="XMLID_214_" style="fill:none;stroke:#333341;stroke-width:2;stroke-miterlimit:10;" x1="368.3" y1="148.9" x2="357.5" y2="142.9"/>
			</g>
		</g>
	</g>
	<g id="XMLID_70_">
		
			<rect id="XMLID_230_" x="331.9" y="152.9" style="fill:#83280B;stroke:#333341;stroke-width:2;stroke-miterlimit:10;" width="3.1" height="23.5"/>
		<g id="XMLID_71_">
			<polygon id="XMLID_229_" style="fill:#ACCFED;stroke:#333341;stroke-width:2;stroke-miterlimit:10;" points="346.1,156.3 
				320.6,156.3 333.4,110.6 			"/>
			
				<line id="XMLID_228_" style="fill:none;stroke:#333341;stroke-width:2;stroke-miterlimit:10;" x1="334" y1="111" x2="334" y2="156"/>
			<g id="XMLID_77_">
				
					<line id="XMLID_81_" style="fill:none;stroke:#333341;stroke-width:2;stroke-miterlimit:10;" x1="333.3" y1="127" x2="336.1" y2="120.4"/>
				
					<line id="XMLID_80_" style="fill:none;stroke:#333341;stroke-width:2;stroke-miterlimit:10;" x1="333.3" y1="136.5" x2="338.3" y2="128.4"/>
				
					<line id="XMLID_79_" style="fill:none;stroke:#333341;stroke-width:2;stroke-miterlimit:10;" x1="333.4" y1="147.1" x2="341.4" y2="139.4"/>
				
					<line id="XMLID_78_" style="fill:none;stroke:#333341;stroke-width:2;stroke-miterlimit:10;" x1="333.3" y1="155.9" x2="344.3" y2="149.9"/>
			</g>
			<g id="XMLID_72_">
				
					<line id="XMLID_76_" style="fill:none;stroke:#333341;stroke-width:2;stroke-miterlimit:10;" x1="333.3" y1="127" x2="330.6" y2="120.4"/>
				
					<line id="XMLID_75_" style="fill:none;stroke:#333341;stroke-width:2;stroke-miterlimit:10;" x1="333.3" y1="136.5" x2="328.3" y2="128.4"/>
				
					<line id="XMLID_74_" style="fill:none;stroke:#333341;stroke-width:2;stroke-miterlimit:10;" x1="333.2" y1="147.1" x2="325.3" y2="139.4"/>
				
					<line id="XMLID_73_" style="fill:none;stroke:#333341;stroke-width:2;stroke-miterlimit:10;" x1="333.3" y1="155.9" x2="322.5" y2="149.9"/>
			</g>
		</g>
	</g>
	<g id="XMLID_6_">
		
			<rect id="XMLID_210_" x="347.3" y="141.9" style="fill:#83280B;stroke:#333341;stroke-width:2;stroke-miterlimit:10;" width="3.7" height="28.1"/>
		<g id="XMLID_10_">
			<polygon id="XMLID_69_" style="fill:#ACCFED;stroke:#333341;stroke-width:2;stroke-miterlimit:10;" points="364.2,146 333.8,146 
				349,91.6 			"/>
			
				<line id="XMLID_68_" style="fill:none;stroke:#333341;stroke-width:2;stroke-miterlimit:10;" x1="349" y1="93" x2="349" y2="146"/>
			<g id="XMLID_40_">
				
					<line id="XMLID_46_" style="fill:none;stroke:#333341;stroke-width:2;stroke-miterlimit:10;" x1="348.9" y1="111" x2="352.2" y2="103.2"/>
				
					<line id="XMLID_45_" style="fill:none;stroke:#333341;stroke-width:2;stroke-miterlimit:10;" x1="348.9" y1="122.4" x2="354.9" y2="112.8"/>
				
					<line id="XMLID_44_" style="fill:none;stroke:#333341;stroke-width:2;stroke-miterlimit:10;" x1="349" y1="135.1" x2="358.6" y2="125.9"/>
				
					<line id="XMLID_41_" style="fill:none;stroke:#333341;stroke-width:2;stroke-miterlimit:10;" x1="348.9" y1="145.5" x2="362.1" y2="138.3"/>
			</g>
			<g id="XMLID_35_">
				
					<line id="XMLID_39_" style="fill:none;stroke:#333341;stroke-width:2;stroke-miterlimit:10;" x1="349" y1="111" x2="345.7" y2="103.2"/>
				
					<line id="XMLID_38_" style="fill:none;stroke:#333341;stroke-width:2;stroke-miterlimit:10;" x1="349" y1="122.4" x2="343" y2="112.8"/>
				
					<line id="XMLID_37_" style="fill:none;stroke:#333341;stroke-width:2;stroke-miterlimit:10;" x1="348.8" y1="135.1" x2="339.4" y2="125.9"/>
				
					<line id="XMLID_36_" style="fill:none;stroke:#333341;stroke-width:2;stroke-miterlimit:10;" x1="349" y1="145.5" x2="336" y2="138.3"/>
			</g>
		</g>
	</g>
	<path id="XMLID_942_" style="fill:#C2DCFF;stroke:#333341;stroke-width:2;stroke-miterlimit:10;" d="M516.9,251.8
		c-4.3-2.1-29-10.6-51.1-22.8s-48.1-36.8-57.2-55.4s-54.2-19.1-74.3-5.2c-6.3,4.4-21.8,17-40.8,33.1c6.8,8.3,11.2,20.6,11.2,34.5
		c0,24.9-14,45-31.4,45c-15,0-27.5-15.1-30.6-35.4c-28.2,25-54.3,49.1-64.3,60.1c-23.4,26-128.3,19.9-130.9,19.9l-0.4-3.3
		l-5.5,125.2l195.1,3l275.9-1.9l8.7-62.4C521.3,386.4,521.3,253.9,516.9,251.8z"/>
	<g id="XMLID_932_">
		<g>
			<defs>
				<ellipse id="SVGID_1_" cx="275.2" cy="229" rx="35.5" ry="52"/>
			</defs>
			<clipPath id="SVGID_2_">
				<use xlink:href="#SVGID_1_"  style="overflow:visible;"/>
			</clipPath>
			<g style="clip-path:url(#SVGID_2_);">
				
					<image style="overflow:visible;enable-background:new    ;" width="710" height="720" id="XMLID_934_" xlink:href="../../../../Documents/Photo on 18-09-2015 at 17.14.jpg"  transform="matrix(0.2085 0 0 0.2085 198.2248 -309.9818)">
				</image>
			</g>
		</g>
	</g>
	
		<rect id="XMLID_554_" x="139" y="235.9" style="fill:#83280B;stroke:#333341;stroke-width:2;stroke-miterlimit:10;" width="9.2" height="69.1"/>
	<g id="XMLID_584_">
		
			<rect id="XMLID_600_" x="436" y="246.9" style="fill:#83280B;stroke:#333341;stroke-width:2;stroke-miterlimit:10;" width="5.6" height="42.1"/>
		<g id="XMLID_585_">
			<polygon id="XMLID_599_" style="fill:#ACCFED;stroke:#333341;stroke-width:2;stroke-miterlimit:10;" points="461.4,253 
				415.7,253 438.5,171.3 			"/>
			
				<line id="XMLID_598_" style="fill:none;stroke:#333341;stroke-width:2;stroke-miterlimit:10;" x1="439" y1="173" x2="439" y2="253"/>
			<g id="XMLID_593_">
				
					<line id="XMLID_597_" style="fill:none;stroke:#333341;stroke-width:2;stroke-miterlimit:10;" x1="438.4" y1="200.5" x2="443.4" y2="188.7"/>
				
					<line id="XMLID_596_" style="fill:none;stroke:#333341;stroke-width:2;stroke-miterlimit:10;" x1="438.4" y1="217.5" x2="447.4" y2="203.1"/>
				
					<line id="XMLID_595_" style="fill:none;stroke:#333341;stroke-width:2;stroke-miterlimit:10;" x1="438.5" y1="236.6" x2="452.9" y2="222.8"/>
				
					<line id="XMLID_594_" style="fill:none;stroke:#333341;stroke-width:2;stroke-miterlimit:10;" x1="438.4" y1="252.3" x2="458.2" y2="241.5"/>
			</g>
			<g id="XMLID_586_">
				
					<line id="XMLID_592_" style="fill:none;stroke:#333341;stroke-width:2;stroke-miterlimit:10;" x1="438.5" y1="200.5" x2="433.5" y2="188.7"/>
				
					<line id="XMLID_590_" style="fill:none;stroke:#333341;stroke-width:2;stroke-miterlimit:10;" x1="438.5" y1="217.5" x2="429.6" y2="203.1"/>
				
					<line id="XMLID_589_" style="fill:none;stroke:#333341;stroke-width:2;stroke-miterlimit:10;" x1="438.3" y1="236.6" x2="424.2" y2="222.8"/>
				
					<line id="XMLID_587_" style="fill:none;stroke:#333341;stroke-width:2;stroke-miterlimit:10;" x1="438.5" y1="252.3" x2="419" y2="241.5"/>
			</g>
		</g>
	</g>
	<g id="XMLID_568_">
		
			<rect id="XMLID_582_" x="400.9" y="239.8" style="fill:#83280B;stroke:#333341;stroke-width:2;stroke-miterlimit:10;" width="6.7" height="50.2"/>
		<g id="XMLID_569_">
			<polygon id="XMLID_581_" style="fill:#ACCFED;stroke:#333341;stroke-width:2;stroke-miterlimit:10;" points="431.1,247.1 
				376.7,247.1 403.9,149.7 			"/>
			
				<line id="XMLID_580_" style="fill:none;stroke:#333341;stroke-width:2;stroke-miterlimit:10;" x1="404" y1="152" x2="404" y2="247"/>
			<g id="XMLID_575_">
				
					<line id="XMLID_579_" style="fill:none;stroke:#333341;stroke-width:2;stroke-miterlimit:10;" x1="403.7" y1="184.5" x2="409.7" y2="170.4"/>
				
					<line id="XMLID_578_" style="fill:none;stroke:#333341;stroke-width:2;stroke-miterlimit:10;" x1="403.7" y1="204.8" x2="414.5" y2="187.6"/>
				
					<line id="XMLID_577_" style="fill:none;stroke:#333341;stroke-width:2;stroke-miterlimit:10;" x1="403.9" y1="227.6" x2="421.1" y2="211.1"/>
				
					<line id="XMLID_576_" style="fill:none;stroke:#333341;stroke-width:2;stroke-miterlimit:10;" x1="403.7" y1="246.2" x2="427.3" y2="233.4"/>
			</g>
			<g id="XMLID_570_">
				
					<line id="XMLID_574_" style="fill:none;stroke:#333341;stroke-width:2;stroke-miterlimit:10;" x1="403.9" y1="184.5" x2="398" y2="170.4"/>
				
					<line id="XMLID_573_" style="fill:none;stroke:#333341;stroke-width:2;stroke-miterlimit:10;" x1="403.9" y1="204.8" x2="393.2" y2="187.6"/>
				
					<line id="XMLID_572_" style="fill:none;stroke:#333341;stroke-width:2;stroke-miterlimit:10;" x1="403.7" y1="227.6" x2="386.8" y2="211.1"/>
				
					<line id="XMLID_571_" style="fill:none;stroke:#333341;stroke-width:2;stroke-miterlimit:10;" x1="403.9" y1="246.2" x2="380.7" y2="233.4"/>
			</g>
		</g>
	</g>
	
		<circle id="XMLID_895_" style="fill:#EDEDE7;stroke:#333341;stroke-width:2;stroke-miterlimit:10;" cx="111.2" cy="130.5" r="27.9"/>
	<g id="XMLID_555_">
		<polygon id="XMLID_567_" style="fill:#ACCFED;stroke:#333341;stroke-width:2;stroke-miterlimit:10;" points="180.6,245.9 
			105.7,245.9 143.2,111.8 		"/>
		
			<line id="XMLID_566_" style="fill:none;stroke:#333341;stroke-width:2;stroke-miterlimit:10;" x1="143" y1="115" x2="143" y2="246"/>
		<g id="XMLID_561_">
			
				<line id="XMLID_565_" style="fill:none;stroke:#333341;stroke-width:2;stroke-miterlimit:10;" x1="142.9" y1="159.7" x2="151.2" y2="140.3"/>
			
				<line id="XMLID_564_" style="fill:none;stroke:#333341;stroke-width:2;stroke-miterlimit:10;" x1="142.9" y1="187.7" x2="157.8" y2="164"/>
			
				<line id="XMLID_563_" style="fill:none;stroke:#333341;stroke-width:2;stroke-miterlimit:10;" x1="143.2" y1="219" x2="166.8" y2="196.4"/>
			
				<line id="XMLID_562_" style="fill:none;stroke:#333341;stroke-width:2;stroke-miterlimit:10;" x1="142.9" y1="244.7" x2="175.4" y2="227"/>
		</g>
		<g id="XMLID_556_">
			
				<line id="XMLID_560_" style="fill:none;stroke:#333341;stroke-width:2;stroke-miterlimit:10;" x1="143.1" y1="159.7" x2="135" y2="140.3"/>
			
				<line id="XMLID_559_" style="fill:none;stroke:#333341;stroke-width:2;stroke-miterlimit:10;" x1="143.1" y1="187.7" x2="128.5" y2="164"/>
			
				<line id="XMLID_558_" style="fill:none;stroke:#333341;stroke-width:2;stroke-miterlimit:10;" x1="142.8" y1="219" x2="119.6" y2="196.4"/>
			
				<line id="XMLID_557_" style="fill:none;stroke:#333341;stroke-width:2;stroke-miterlimit:10;" x1="143.1" y1="244.7" x2="111.2" y2="227"/>
		</g>
	</g>
	<path id="XMLID_931_" style="fill:#ACEAED;stroke:#333341;stroke-width:2;stroke-miterlimit:10;" d="M44.6,299.9
		c0,0,52.9-10.6,84.9-8c32.1,2.6,128.8,28.8,166.6,24.4c37.9-4.4,116.8-42.7,152.4-53.5c35.5-10.8,72.8-8.9,72.8-8.9l-6.9,187.5
		L285.9,448l-244.3-0.3L44.6,299.9z"/>
	<path id="XMLID_930_" style="fill:#C8EAED;stroke:#333341;stroke-width:2;stroke-miterlimit:10;" d="M176,441.4
		c4-2.5,18.7-19.3,36.6-16.7s37,0,49.6,0c12.5,0,41.9,9.6,60,3.1S363.8,408,375,408c11.3,0.1,42.1,16.2,46.5,23.1
		c4.4,6.8-3.8,17.7-3.8,17.7L176,450.7V441.4z"/>
	<g id="santa_1_">
		<path id="XMLID_929_" style="fill:#37BEC0;stroke:#333341;stroke-width:2;stroke-miterlimit:10;" d="M243.1,376.5
			c0,0,4.7,14.5,4.8,21.6c0.2,7.1-3.1,12.9,0,14c3.1,1.2,10.1,0,10.2-4.8c0.2-4.8-0.8-7.3-1.3-12.8s2.8-14.2,2.3-18
			C258.7,372.7,239.8,370.1,243.1,376.5z"/>
		<path id="XMLID_928_" style="fill:#37BEC0;stroke:#333341;stroke-width:2;stroke-miterlimit:10;" d="M304,377.7
			c0,0-4.7,14.5-4.8,21.6c-0.2,7.1,3.1,12.9,0,14c-3.1,1.2-10.1,0-10.2-4.8c-0.2-4.8,0.8-7.3,1.3-12.8s-2.8-14.2-2.3-18
			S307.3,371.3,304,377.7z"/>
		<g id="XMLID_917_">
			<path id="XMLID_927_" style="fill:#ED4F7E;stroke:#333341;stroke-width:2;stroke-miterlimit:10;" d="M229.1,254
				c0,0-28.7,27.2-25.5,42.7s12.6,19.6,12.6,19.6s-0.3,23.2-5.3,27.8s24.4,22.5,58.5,20.8c34-1.7,73.7-9,74.1-13.6
				c0.5-4.6-10-21.4-10-28.9s8.2-3.4,10-12.5s-5.5-41.7-12.3-49.2c-10.1-11-26.4,8.7-56.1,7.5C264,267.7,235.1,252.5,229.1,254z"/>
			<path id="XMLID_926_" style="fill:#FFFFFF;stroke:#333341;stroke-width:2;stroke-miterlimit:10;" d="M239.3,246.4
				c-8.4,3.7-24.6,8.2-16.9,18.7c7.7,10.5,65.4,19.7,83.2,10.2c17.8-9.6,36.7-16.9,12.4-25.8c-14.4-5.2-21.2,19-39,19
				C256.8,268.5,242.4,245.1,239.3,246.4z"/>
			<path id="XMLID_925_" style="fill:#83280B;stroke:#333341;stroke-width:2;stroke-miterlimit:10;" d="M214.9,325
				c2.7-3.2,1.4-2.3,7.7,0c6.4,2.3,29.6,12.3,55.6,11.4s47.3-2.3,53.1-7c4.7-3.8,4-8.8,6.7-6.5s-1.1,9.9,1.7,13.5
				c2.7,3.6,6.4,4.5,2.3,6.8s-38.3,15-65.6,15s-64.2-11.4-66.1-15s2.3-5,3.2-8.7C214.5,330.9,214.9,325,214.9,325z"/>
			<path id="XMLID_922_" style="fill:#FAAF3B;stroke:#333341;stroke-width:2;stroke-miterlimit:10;" d="M293,338.2
				c0-2.3-1.9-4.2-4.2-4.2h-28.6c-2.3,0-4.2,1.9-4.2,4.2v17.6c0,2.3,1.9,4.2,4.2,4.2h28.6c2.3,0,4.2-1.9,4.2-4.2V338.2z M288,352.2
				c0,1.5-1.2,2.8-2.8,2.8h-20.4c-1.5,0-2.8-1.2-2.8-2.8v-10.4c0-1.5,1.2-2.8,2.8-2.8h20.4c1.5,0,2.8,1.2,2.8,2.8V352.2z"/>
			<path id="XMLID_921_" style="fill:#FFFFFF;stroke:#333341;stroke-width:2;stroke-miterlimit:10;" d="M210.3,345.5
				c0,0-11.4-3.9-11.5,5.8s1.5,13.6,8.4,15.3c6.9,1.7,46.9,14.4,53.3,11.9s12.7-1.7,13-8.6s3.3-7.9-2.8-6.4
				c-6.1,1.5-5.8,2.5-17.2-0.3C242.2,360.5,216.5,348.9,210.3,345.5z"/>
			<path id="XMLID_920_" style="fill:#FFFFFF;stroke:#333341;stroke-width:2;stroke-miterlimit:10;" d="M339,350.5
				c0,0,10.9-8.9,11.1,0.8c0.2,9.7-1.5,13.6-8.4,15.3c-6.9,1.7-46.9,14.4-53.3,11.9s-12.7-1.7-13-8.6s-3.3-7.9,2.8-6.4
				c6.1,1.5,4.1,2.1,15.5-0.7S332.9,353.8,339,350.5z"/>
			<path id="XMLID_919_" style="fill:none;stroke:#333341;stroke-width:2;stroke-miterlimit:10;" d="M216.2,316.3
				c0,0-3.1-6.3,0-21.1s2.2-11.3,2.2-11.3"/>
			<path id="XMLID_918_" style="fill:none;stroke:#333341;stroke-width:2;stroke-miterlimit:10;" d="M333.4,322.5
				c-1.2-0.6,2.7-17.4,0-26.4s-3.8-12.5-3.8-12.5"/>
		</g>
		<path id="XMLID_916_" style="fill:#FFFFFF;stroke:#333341;stroke-width:2;stroke-miterlimit:10;" d="M246.3,213.8
			c-1.4,1.9-14.6,24.6-14.1,36c0.5,11.4,5.5,22.2,7.1,30.7s3.9,16.7,2.5,19.4c-1.4,2.7,8.2-6.8,7.7-14.1s1.6,28.2-3,32.3
			c-4.6,4.1,16.5-5.5,16.5-15s0-14.1,0-14.1s2.1,19.2-5.6,32.4c-7.7,13.2,1.1,41.2,5.8,43.6c4.6,2.4-1-8.1,4.3-25.9
			s12.6-11.8,18.5-28.2c5.9-16.4-6.8,11.4-5,20.5s2.3-2.3,9.6-10.9c7.3-8.7,15.9-7.7,16.4-18.2s3.2,4.6,7.3,5
			c4.1,0.5-3.2-6.8,0-20.5s-7.4-56.9-9.1-68.3c-1.7-11.4-8.7-1.8-9.1-9.1c-0.5-7.3,10,33.8-2.7,46.5c-10,10-37.8,7.7-43.3-6
			C244.5,236.1,256.2,200.4,246.3,213.8z"/>
		<path id="XMLID_915_" style="fill:#FFFFFF;stroke:#333341;stroke-width:2;stroke-miterlimit:10;" d="M273.5,244.9
			c-1.8-0.4-11.8,3.2-20.5,6.8c-8.7,3.6-16.8,7.3-6.8,6c10-1.3,22-7.5,29.7-6.3c7.7,1.2,23.2,3.7,28.7,6.8
			C310,261.4,295.6,249.4,273.5,244.9z"/>
		<g id="XMLID_908_">
			<g id="XMLID_912_">
				<path id="XMLID_914_" style="fill:#52280B;stroke:#333341;stroke-width:2;stroke-miterlimit:10;" d="M260.6,418.7
					c-0.7,1.8-4.2,5.3-4.2,5.3l-2.3,0.6l-1.5-4c0,0,0.2,2.6-1.1,5.5s-6.3,8.4-9.5,9.3c-3.1,0.9-9.2,1.8-11.6,0.7
					c-2.5-1.1-3.9-1.5-4.6-2.6c-0.7-1.1,0-4.4,0-4.4l26.6-13.5l7.4-4.1C259.8,411.4,262,414.7,260.6,418.7z"/>
				<path id="XMLID_913_" style="fill:#83280B;stroke:#333341;stroke-width:2;stroke-miterlimit:10;" d="M242.3,400.1
					c0.5-2.8,0-4,3.3-4.5s7.3,2.1,6.8,4.5c-0.5,2.3-3.6,9.4-2.8,10.4s1.5,1.6,4,0s4.8-3.3,4.8-5.1c0-1.5,1.5,3.4,2.1,6
					c0.1,0.5,0.2,0.9,0.2,1.2c0.2,1.7-4,7-6.1,8s-9.2,13.7-15.7,12.9s-13.4,0.2-13.9-3c-0.5-3.1-3.1-3.1,0-5.8
					c3.1-2.6,12.4-3.5,14.2-8.7c1.8-5.3,4.6-9.1,4.1-11.5C242.8,401.9,242.3,400.1,242.3,400.1z"/>
			</g>
			<path id="XMLID_909_" style="fill:#FAAF3B;stroke:#333341;stroke-width:2;stroke-miterlimit:10;" d="M251.7,407.4
				c-1-2.2-8.4-3.9-8.4-3.9c-3.3-0.8-4,7.2-3.9,9s3.7,1.5,6.4,3.5c2.7,1.9,4.3,0.1,5.8-2.3C253.2,411.2,252.7,409.7,251.7,407.4z
				 M248.1,412.2c-0.2,0.4-0.7,0.6-1.1,0.4l-3.7-1.4c-0.4-0.1-0.6-0.5-0.6-0.9c-0.1-0.9,0-2.5,1.1-3.2c0.7-0.5,5.5,0.7,5.6,1.7
				C249.5,409.4,248.7,411.2,248.1,412.2z"/>
		</g>
		<g id="XMLID_901_">
			<g id="XMLID_905_">
				<path id="XMLID_907_" style="fill:#52280B;stroke:#333341;stroke-width:2;stroke-miterlimit:10;" d="M286.6,418.7
					c0.7,1.8,4.3,5.3,4.3,5.3l2.4,0.6l1.5-4c0,0-0.2,2.6,1.1,5.5c1.3,2.9,6.4,8.4,9.6,9.3s9.3,1.8,11.8,0.7c2.5-1.1,3.9-1.5,4.6-2.6
					s0-4.4,0-4.4l-27-13.5l-7.5-4.1C287.4,411.4,285.1,414.7,286.6,418.7z"/>
				<path id="XMLID_906_" style="fill:#83280B;stroke:#333341;stroke-width:2;stroke-miterlimit:10;" d="M305.1,400.1
					c-0.5-2.8,0-4-3.3-4.5s-7.4,2.1-6.9,4.5c0.5,2.3,3.7,9.4,2.8,10.4c-0.8,1-1.5,1.6-4,0s-4.9-3.3-4.9-5.1c0-1.5-1.5,3.4-2.1,6
					c-0.1,0.5-0.2,0.9-0.2,1.2c-0.2,1.7,4,7,6.2,8s9.4,13.7,15.9,12.9c6.5-0.8,13.6,0.2,14.1-3c0.5-3.1,3.2-3.1,0-5.8
					c-3.2-2.6-12.5-3.5-14.4-8.7c-1.8-5.3-4.7-9.1-4.2-11.5S305.1,400.1,305.1,400.1z"/>
			</g>
			<path id="XMLID_902_" style="fill:#FAAF3B;stroke:#333341;stroke-width:2;stroke-miterlimit:10;" d="M295.6,407.4
				c1.1-2.2,8.5-3.9,8.5-3.9c3.3-0.8,4.1,7.2,3.9,9s-3.8,1.5-6.5,3.5c-2.7,1.9-4.4,0.1-5.9-2.3C294.1,411.2,294.6,409.7,295.6,407.4
				z M299.2,412.2c0.2,0.4,0.7,0.6,1.1,0.4l3.7-1.4c0.4-0.1,0.6-0.5,0.6-0.9c0.1-0.9,0-2.5-1.1-3.2c-0.7-0.5-5.5,0.7-5.7,1.7
				C297.8,409.4,298.7,411.2,299.2,412.2z"/>
		</g>
		<g id="XMLID_896_">
			
				<circle id="XMLID_900_" style="fill:#FFFFFF;stroke:#333341;stroke-width:2;stroke-miterlimit:10;" cx="285.9" cy="86.7" r="15.5"/>
			<path id="XMLID_899_" style="fill:#ED4F7E;stroke:#333341;stroke-width:2;stroke-miterlimit:10;" d="M258.6,150
				c5.2-7.1,1.8-18.2,4.6-30.5c2.7-12.3,18.2-30.1,18.2-30.1s5.9-0.9,4.6,2.3c-1.4,3.2-5.5,17.3-4.1,24.1s14.1,16.4,15.9,23.2
				c1.8,6.8,4.1,27.3,3.6,32.3s3.5,19.3,7.5,22.2s-7.5,6.1-7.5,6.1l-50.1,4.1c0,0-16.1,5.2-14.4-5.4c1.7-10.6,2.6-15.1,7.2-23.3
				C248.6,166.9,256,153.6,258.6,150z"/>
			<path id="XMLID_898_" style="fill:#FFFFFF;stroke:#333341;stroke-width:2;stroke-miterlimit:10;" d="M233.6,221.5
				c0,0,13.6,2.4,20-4s10.7-8.5,13.8-8.5c3.1,0,20.4,0,20.4,0s8.1,8.6,11.3,9.5c3.2,0.9,9.1,7.2,12.3,6.3c3.2-0.9,8.2-12.8,8.2-12.8
				s-3.6-14.6-6.8-15.5c-3.2-0.9-5.5-5.9-10.9-8c-5.5-2.1-12.3-4.1-17.8-4.9c-5.5-0.8-21.4-1.5-24.1,0c-2.7,1.5-12.3,1.9-16.4,7.8
				c-1.5,2.2-4.1,4.6-6.7,6.9c-4.3,3.9-8.6,7.9-8.3,11.3C229,215.2,230.5,219.2,233.6,221.5z"/>
			<path id="XMLID_897_" style="fill:#FFFFFF;stroke:#333341;stroke-width:2;stroke-miterlimit:10;" d="M281.4,89.4
				c-1.1-1-2.7-1-2-5.1"/>
		</g>
	</g>
</g>
<g id="XMLID_351_">
	<path id="XMLID_390_" style="fill:#372C00;" d="M16.9,29L17,496h534V29l-18.9-4L16.9,29z M500,66v377H70V66"/>
	<path id="XMLID_373_" style="fill:#EABC4F;" d="M17,6v486h534V6H17z M497,439H67V62h430V439z"/>
</g>
<path style="fill:#ACCFED;stroke:#333341;stroke-width:2;stroke-miterlimit:10;" d="M123.5,267c-0.4,0.1-0.9,0.3-1.3,0.4
	c-2.3,0.6-3.8,2.9-3.2,5.1c0.9,4.2-0.7,7.6-3.2,10.7c-0.7,0.8-1.5,1.6-2.3,2.3c-1.2,1.1-2.6,1.5-4.2,1.4c-0.5,0-1,0-1.6,0
	c-0.8,0-1,0.4-0.7,1c0.3,0.5,0.6,1,1,1.4c0.1,0.1,0.5,0.1,0.7,0.1c0.2,0,0.5-0.2,0.8-0.1c-0.2,0.2-0.4,0.4-0.7,0.6
	c1.2,0.5,2.4-0.8,3.6,0.1c-1.1,0.2-2.2-0.2-2.8,1c0.9,0.7,1.9,1,3.1,0.6c0.6-0.2,1.2-0.3,1.9-0.4c-0.6,0.2-1.1,0.4-0.7,1.1
	c-0.6,0.2-1.2,0.4-1.7,0.5c-0.6,0.1-1.3,0.1-1.8-0.1c-1-0.3-1.9-0.4-2.9,0c-0.5,0.2-0.9,0.4-1.4-0.2c-0.1-0.1-0.9,0.2-1.6,0.4
	c0.4-0.3,0.6-0.6,0.9-0.6c0.7-0.1,1.3-0.1,2-0.2c0.4-0.1,1.1-0.4,1.1-0.6c0-0.6-0.5-1.1-1.2-1c-1,0.1-2,0.3-3,0.5
	c-0.3,0.1-0.7,0.4-0.9-0.2c0-0.1-0.8,0.2-1.3,0.3c-0.1-0.6,0.4-0.7,0.9-0.8c0.6-0.1,1.3,0,1.9-0.1c0.4,0,0.7-0.2,1.2-0.3
	c-0.6-0.9-1.2-1.6-1.8-2.4c-0.1-0.2-0.3-0.3-0.5-0.4c-1.1-0.3-2.3-0.9-3.4-0.9c-2.5,0-4.8,0.7-7,1.8c-2.5,1.2-4.6,2.8-6.6,4.6
	c-0.7,0.6-1.7,1-2.6,1.4c-0.2,0.1-0.5,0.3-0.8,0.3c-0.3,0-0.9-0.2-0.9-0.3c0.1-0.7-0.5-0.6-0.9-0.7c-0.4-0.1-0.8-0.2-1.4-0.3
	c0.4-0.3,0.6-0.4,0.8-0.5c3-1.8,6.1-3.6,9.1-5.5c0.4-0.3,0.7-0.8,1.1-1.2c2.6-2.7,5.2-5.5,8-8c3.1-2.7,6.2-5.4,9.8-7.6
	c0.7-0.4,1.1-1.2,1.6-1.9c0.8-1,1.5-2.2,2.5-3.1c2-1.8,4.7-1.7,6.9-0.1c0.6,0.4,1.4,0.6,2.1,0.9c0.5,0.2,1.1,0.4,1.6,0.7
	C123.5,266.9,123.5,267,123.5,267z"/>
<polygon style="fill:#EDEDE7;stroke:#333341;stroke-width:2;stroke-miterlimit:10;" points="180.6,79.1 182.5,87.5 190.9,89.4 
	182.5,91.3 180.6,99.7 178.8,91.3 170.3,89.4 178.8,87.5 "/>
<polygon style="fill:#EDEDE7;stroke:#333341;stroke-width:2;stroke-miterlimit:10;" points="476.7,174.3 478.6,182.7 487,184.6 
	478.6,186.4 476.7,194.9 474.8,186.4 466.4,184.6 474.8,182.7 "/>
<polygon style="fill:#EDEDE7;stroke:#333341;stroke-width:2;stroke-miterlimit:10;" points="213.7,135.1 216.2,146.4 227.5,148.9 
	216.2,151.4 213.7,162.7 211.1,151.4 199.8,148.9 211.1,146.4 "/>
<polygon style="fill:#EDEDE7;stroke:#333341;stroke-width:2;stroke-miterlimit:10;" points="419,84.3 421.6,95.6 432.9,98.1 
	421.6,100.6 419,111.9 416.5,100.6 405.2,98.1 416.5,95.6 "/>
</svg>
