<?xml version="1.0" encoding="UTF-8" standalone="no"?>
<svg width="405px" height="242px" viewBox="0 0 405 242" version="1.1" xmlns="http://www.w3.org/2000/svg" xmlns:xlink="http://www.w3.org/1999/xlink" xmlns:sketch="http://www.bohemiancoding.com/sketch/ns">
    <!-- Generator: Sketch 3.3.2 (12043) - http://www.bohemiancoding.com/sketch -->
    <title>photography</title>
    <desc>Created with Sketch.</desc>
    <defs></defs>
    <g id="Elements" stroke="none" stroke-width="1" fill="none" fill-rule="evenodd" sketch:type="MSPage">
        <g id="photography" sketch:type="MSLayerGroup">
            <g id="shadow" transform="translate(8.100000, 10.224105)" fill="#000030" sketch:type="MSShapeGroup">
                <path d="M389.61,120.303641 L376.515,120.303641 L376.515,21.3343001 C373.3425,18.130747 371.5875,16.3585687 368.415,13.1550157 L207.09,13.1550157 L207.09,5.79365976 L202.0275,5.79365976 L204.1875,7.90664156 L172.125,7.90664156 L174.285,5.79365976 L169.2225,5.79365976 L169.2225,7.90664156 L169.2225,13.1550157 L107.2575,13.1550157 L107.2575,0 L62.4375,0 L62.4375,5.86182046 L28.89,5.86182046 L28.89,13.086855 L8.5725,13.086855 C5.4,16.290408 3.645,18.0625863 0.4725,21.2661394 L0.4725,222.885499 C3.645,226.089052 5.4,227.86123 8.5725,231.064783 L368.415,231.064783 C371.5875,227.86123 373.3425,226.089052 376.515,222.885499 L376.515,141.092655 L389.61,141.092655 C389.61,141.092655 404.6625,131.686478 389.61,120.303641 L389.61,120.303641 Z M207.0225,13.086855 L206.7525,13.086855 L206.7525,12.5415694 L207.0225,13.086855 L207.0225,13.086855 Z M386.505,133.935782 C384.8175,133.935782 383.4,132.504407 383.4,130.800389 C383.4,129.096372 384.8175,127.664997 386.505,127.664997 C388.1925,127.664997 389.61,129.096372 389.61,130.800389 C389.61,132.504407 388.1925,133.935782 386.505,133.935782 L386.505,133.935782 Z" id="Shape"></path>
            </g>
            <g id="illustration" transform="translate(1.350000, 1.363214)" sketch:type="MSShapeGroup">
                <path d="M8.8425,232.427997 L0.675,224.248713 L0.675,22.9701569 L8.8425,14.9953547 L29.0925,14.9953547 C29.295,14.9953547 29.7,14.7908726 29.7,14.5863905 L29.7,7.49767734 L38.205,7.49767734 C38.4075,7.49767734 38.475,7.56583804 38.475,7.36135593 L38.475,0.681607031 L57.375,0.681607031 L57.375,7.36135593 C57.375,7.56583804 57.3075,7.49767734 57.51,7.49767734 L62.64,7.49767734 C62.8425,7.49767734 62.775,7.56583804 62.775,7.36135593 L62.775,2.04482109 L107.325,2.04482109 L107.325,14.5863905 C107.325,14.7908726 107.2575,14.9953547 107.46,14.9953547 L368.4825,14.9953547 L376.7175,22.9701569 L376.7175,122.007659 C376.7175,122.212141 376.5825,122.689266 376.785,122.689266 L389.8125,122.689266 L390.15,122.757426 C394.2675,125.892819 396.2925,129.096372 396.225,132.436246 C396.09,137.275656 391.5675,141.024495 390.15,142.046905 L389.8125,142.455869 L376.785,142.455869 C376.5825,142.455869 376.7175,142.251387 376.7175,142.455869 L376.7175,224.248713 L368.4825,232.427997 L8.8425,232.427997 L8.8425,232.427997 Z" id="Shape" fill="#FFFFFF"></path>
                <g id="Group">
                    <path d="M389.8125,142.455869 C389.8125,142.455869 404.865,132.913371 389.8125,122.007659 L376.65,122.007659 L376.65,142.455869 L389.8125,142.455869 L389.8125,142.455869 Z M386.7075,129.164532 C388.395,129.164532 389.8125,130.595907 389.8125,132.299925 C389.8125,134.003942 388.395,135.435317 386.7075,135.435317 C385.02,135.435317 383.6025,134.003942 383.6025,132.299925 C383.6025,130.527746 385.02,129.164532 386.7075,129.164532 L386.7075,129.164532 Z" id="Shape" stroke="#000030" stroke-width="1.25" fill="#FFFFFF"></path>
                    <path d="M62.64,14.5863905 L62.64,1.43137476 L107.46,1.43137476 L107.46,14.5863905" id="Shape" stroke="#000030" stroke-width="1.25"></path>
                    <path d="M38.205,6.5434275 L38.205,9.76996262e-15 L57.51,9.76996262e-15 L57.51,6.5434275" id="Shape" stroke="#000030" stroke-width="1.25"></path>
                    <rect id="Rectangle-path" fill="#FFFFFF" x="29.0925" y="7.36135593" width="37.53" height="7.63399874"></rect>
                    <path d="M29.0925,14.5863905 L29.0925,7.36135593 L66.6225,7.36135593 L66.6225,14.5863905" id="Shape" stroke="#000030" stroke-width="1.25"></path>
                    <path d="M368.55,232.564319 L8.7075,232.564319 C5.535,229.360766 3.78,227.588588 0.6075,224.385035 L0.6075,22.8338355 C3.78,19.6302825 5.535,17.8581042 8.7075,14.6545512 L368.55,14.6545512 C371.7225,17.8581042 373.4775,19.6302825 376.65,22.8338355 L376.65,224.453195 C373.545,227.588588 371.7225,229.428927 368.55,232.564319 L368.55,232.564319 Z" id="Shape" stroke="#000030" stroke-width="1.25" fill="#FFFFFF"></path>
                    <path d="M375.3,63.7302574 L0.675,63.7302574" id="Shape" stroke="#000030" stroke-width="1.25"></path>
                    <g transform="translate(297.000000, 20.448211)" id="Shape" stroke="#000030">
                        <path d="M45.9,35.9888512 L10.125,35.9888512 C4.86,35.9888512 0.54,31.6947269 0.54,26.3100314 L0.54,9.95146265 C0.54,4.63492781 4.7925,0.272642812 10.125,0.272642812 L45.9,0.272642812 C51.165,0.272642812 55.485,4.56676711 55.485,9.95146265 L55.485,26.3100314 C55.4175,31.6947269 51.165,35.9888512 45.9,35.9888512 L45.9,35.9888512 Z" stroke-width="1.25"></path>
                        <path d="M44.3475,30.9449592 L11.6775,30.9449592 C8.7075,30.9449592 6.345,28.4911739 6.345,25.5602637 L6.345,10.9057125 C6.345,7.90664156 8.775,5.52101695 11.6775,5.52101695 L44.3475,5.52101695 C47.3175,5.52101695 49.68,7.97480226 49.68,10.9057125 L49.68,25.492103 C49.68,28.4911739 47.25,30.9449592 44.3475,30.9449592 L44.3475,30.9449592 Z" stroke-width="0.5"></path>
                        <path d="M9.72,5.86182046 L8.9775,0.477124922" stroke-width="0.5"></path>
                        <path d="M6.2775,8.8608914 L0.8775,8.17928437" stroke-width="0.5"></path>
                        <path d="M55.2825,28.014049 L49.41,27.536924" stroke-width="0.5"></path>
                        <path d="M48.3975,35.6480477 L46.7775,30.2633522" stroke-width="0.5"></path>
                    </g>
                    <path d="M9.1125,14.9953547 L9.1125,232.427997 M366.8625,14.9953547 L366.8625,232.427997" id="Shape" stroke="#000030" stroke-width="1.25"></path>
                    <g transform="translate(120.825000, 76.339987)">
                        <g>
                            <ellipse id="Oval" fill="#000030" cx="77.2875" cy="78.1803264" rx="67.8375" ry="68.5015066"></ellipse>
                            <path d="M130.4775,111.783553 L139.5225,120.917087 L118.4625,142.183227 L109.0125,132.640728" id="Shape" fill="#000030"></path>
                            <g id="Shape" stroke="#000030" stroke-width="1.25" fill="#FFFFFF">
                                <path d="M124.4025,107.62575 L133.4475,116.759284 L114.4125,135.980603 L104.9625,126.438104"></path>
                                <path d="M135.675,68.637828 C135.675,106.467018 105.3,137.139335 67.8375,137.139335 C30.375,137.139335 0,106.467018 0,68.637828 C0,30.8086378 30.375,0.136321406 67.8375,0.136321406 C105.3,0.136321406 135.675,30.7404771 135.675,68.637828 L135.675,68.637828 Z"></path>
                                <path d="M123.66,68.637828 C123.66,99.7872693 98.685,125.006729 67.8375,125.006729 C36.99,125.006729 12.015,99.7872693 12.015,68.637828 C12.015,37.4883867 36.99,12.2689266 67.8375,12.2689266 C98.685,12.2689266 123.66,37.4883867 123.66,68.637828 L123.66,68.637828 Z"></path>
                                <path d="M94.1625,68.637828 C94.1625,83.2923792 82.35,95.2205022 67.8375,95.2205022 C53.325,95.2205022 41.5125,83.2923792 41.5125,68.637828 C41.5125,53.9832768 53.325,42.0551538 67.8375,42.0551538 C82.35,42.0551538 94.1625,53.9151161 94.1625,68.637828 L94.1625,68.637828 Z"></path>
                            </g>
                        </g>
                        <ellipse id="Oval" fill="#000030" cx="67.8375" cy="68.637828" rx="22.005" ry="22.2203892"></ellipse>
                    </g>
                    <path d="M60.9525,38.9879222 C60.9525,46.0766353 55.2825,51.8021343 48.2625,51.8021343 C41.2425,51.8021343 35.5725,46.0766353 35.5725,38.9879222 C35.5725,31.899209 41.2425,26.17371 48.2625,26.17371 C55.2825,26.17371 60.9525,31.899209 60.9525,38.9879222 L60.9525,38.9879222 Z" id="Shape" stroke="#000030" stroke-width="1.25" fill="#FFFFFF"></path>
                    <g transform="translate(168.750000, 4.771249)" id="Shape" stroke="#000030" stroke-width="1.25">
                        <path d="M38.205,9.26985562 L0.675,9.26985562 L0.675,3.88516008 L38.205,3.88516008 L38.205,9.26985562 L38.205,9.26985562 Z" fill="#FFFFFF"></path>
                        <path d="M0,9.26985562 L0,0 L5.0625,0"></path>
                        <path d="M33.4125,0 L38.475,0 L38.475,9.26985562"></path>
                    </g>
                </g>
                <g id="Group" transform="translate(137.025000, 92.698556)" stroke="#000030" stroke-width="0.5">
                    <path d="M103.14,52.2792593 C103.14,81.043076 80.055,104.285876 51.6375,104.285876 C23.22,104.285876 0.135,80.9749153 0.135,52.2792593 C0.135,23.5836033 23.22,0.272642812 51.6375,0.272642812 C80.055,0.272642812 103.14,23.5154426 103.14,52.2792593 L103.14,52.2792593 Z" id="Shape"></path>
                    <path d="M3.4425,52.2792593 C3.4425,79.202737 25.0425,100.946001 51.6375,100.946001 C78.2325,100.946001 99.8325,79.1345763 99.8325,52.2792593 C99.8325,25.4239422 78.2325,3.61251726 51.6375,3.61251726 C25.0425,3.61251726 3.4425,25.3557815 3.4425,52.2792593 L3.4425,52.2792593 Z" id="Shape"></path>
                    <path d="M96.525,52.2792593 C96.525,77.2942373 76.41,97.6061268 51.6375,97.6061268 C26.865,97.6061268 6.75,77.2942373 6.75,52.2792593 C6.75,27.2642812 26.865,6.95239171 51.6375,6.95239171 C76.41,6.95239171 96.525,27.1961205 96.525,52.2792593 L96.525,52.2792593 Z" id="Shape"></path>
                    <path d="M10.0575,52.2792593 C10.0575,75.4538983 28.6875,94.2662524 51.6375,94.2662524 C74.5875,94.2662524 93.2175,75.4538983 93.2175,52.2792593 C93.2175,29.1046202 74.5875,10.2241055 51.6375,10.2241055 C28.6875,10.2241055 10.0575,29.0364595 10.0575,52.2792593 L10.0575,52.2792593 Z" id="Shape"></path>
                    <path d="M89.91,52.2792593 C89.91,73.6135593 72.765,90.9263779 51.6375,90.9263779 C30.51,90.9263779 13.365,73.6135593 13.365,52.2792593 C13.365,30.9449592 30.51,13.6321406 51.6375,13.6321406 C72.765,13.6321406 89.91,30.8767985 89.91,52.2792593 L89.91,52.2792593 Z" id="Shape"></path>
                    <path d="M16.6725,52.2792593 C16.6725,71.7732203 32.3325,87.5865035 51.6375,87.5865035 C70.9425,87.5865035 86.6025,71.7732203 86.6025,52.2792593 C86.6025,32.7852982 70.9425,16.9720151 51.6375,16.9720151 C32.3325,16.9720151 16.6725,32.7171375 16.6725,52.2792593 L16.6725,52.2792593 Z" id="Shape"></path>
                    <path d="M83.295,52.2792593 C83.295,69.9328814 69.12,84.246629 51.6375,84.246629 C34.155,84.246629 19.98,69.9328814 19.98,52.2792593 C19.98,34.6256372 34.155,20.3118895 51.6375,20.3118895 C69.12,20.3118895 83.295,34.6256372 83.295,52.2792593 L83.295,52.2792593 Z" id="Shape"></path>
                </g>
            </g>
            <g id="outline" fill="#000030" sketch:type="MSShapeGroup">
                <path d="M392.175,122.14398 C391.905,121.939498 391.5675,122.007659 391.1625,122.007659 L380.025,122.007659 L380.025,24.1970496 C380.025,23.7199247 379.6875,23.3109605 379.4175,22.9701569 L371.25,14.7908726 C370.9125,14.4500691 370.44,14.3137476 369.9675,14.3137476 L209.925,14.3137476 L209.925,10.0196234 C209.925,9.06537351 209.1825,8.17928437 208.305,8.17928437 L170.775,8.17928437 C169.83,8.17928437 168.75,9.06537351 168.75,10.0196234 L168.75,14.3137476 L110.7,14.3137476 L110.7,2.86274953 C110.7,1.90849969 109.755,1.36321406 108.81,1.36321406 L63.99,1.36321406 C63.045,1.36321406 62.1,1.90849969 62.1,2.86274953 L62.1,6.81607031 L60.75,6.81607031 L60.75,1.36321406 C60.75,0.408964218 59.805,-1.42108547e-14 58.86,-1.42108547e-14 L39.555,-1.42108547e-14 C38.61,-1.42108547e-14 37.8,0.408964218 37.8,1.36321406 L37.8,6.81607031 L30.4425,6.81607031 C29.4975,6.81607031 29.025,7.77032015 29.025,8.72456999 L29.025,14.3137476 L10.0575,14.3137476 C9.585,14.3137476 9.18,14.4500691 8.8425,14.7908726 L0.6075,22.9701569 C0.27,23.3109605 0,23.7199247 0,24.1288889 L0,225.748249 C0,226.225374 0.3375,226.634338 0.6075,226.975141 L8.775,235.290747 C9.1125,235.631551 9.585,235.904193 10.0575,235.904193 L369.9,235.904193 C370.3725,235.904193 370.7775,235.631551 371.115,235.290747 L379.35,227.043302 C379.6875,226.702498 379.9575,226.225374 379.9575,225.816409 L379.9575,145.863905 L391.095,145.863905 C391.4325,145.863905 391.7025,145.591262 391.9725,145.45494 C392.2425,145.250458 399.195,140.751852 399.465,134.003942 C399.6675,129.777979 397.17,125.824658 392.175,122.14398 L392.175,122.14398 Z M390.69,142.455869 L378.0675,142.455869 C377.1225,142.455869 376.65,142.864834 376.65,143.819083 L376.65,225.066642 L369.225,232.427997 L10.8,232.427997 L3.375,225.066642 L3.375,24.8786566 L10.8,17.7217828 L30.4425,17.7217828 C31.3875,17.7217828 32.4,16.9038544 32.4,15.9496045 L32.4,9.54249843 L39.555,9.54249843 C40.5,9.54249843 41.175,8.99721281 41.175,8.04296296 L41.175,3.40803515 L57.375,3.40803515 L57.375,8.04296296 C57.375,8.99721281 57.915,9.54249843 58.86,9.54249843 L63.99,9.54249843 C64.935,9.54249843 65.475,8.99721281 65.475,8.04296296 L65.475,4.77124922 L107.325,4.77124922 L107.325,15.9496045 C107.325,16.9038544 107.865,17.7217828 108.81,17.7217828 L172.125,17.7217828 L172.125,13.6321406 L172.125,11.5873195 L206.55,11.5873195 L206.55,17.7217828 L369.225,17.7217828 L376.65,24.8786566 L376.65,123.370873 C376.65,124.325122 377.1225,125.415694 378.0675,125.415694 L390.6225,125.415694 C394.4025,128.142122 396.225,131.141193 396.1575,134.072103 C396.0225,138.229906 391.9725,141.092655 390.69,142.455869 L390.69,142.455869 Z" id="Shape"></path>
            </g>
            <path d="M12.15,71.8444444 L365.8603,71.8444444" id="Line" stroke="#4A4A4A" stroke-linecap="square" sketch:type="MSShapeGroup"></path>
        </g>
    </g>
</svg>